<svg xmlns="http://www.w3.org/2000/svg" width="940" height="620" viewBox="0 0 940 620"><rect width="940" height="620" fill="#ffffff"></rect><g><path d="M11.281823329478502 11.453937256783247 C195.57827641487123 13.19779573199451, 378.19683841750026 14.09055183646381, 928.2408487935364 11.452112796753646 M11.912176684364676 12.04073096729815 C283.6545056710393 14.565248706543446, 555.9262184315177 14.591798777782916, 928.224740787968 12.222576005235315 M927.4749681706727 12.188566539734602 C927.2136892516463 212.31923451989888, 927.5897119099944 411.8267071570456, 928.1450820441544 608.5353533773124 M927.820886970982 11.794976269975304 C928.174429692012 174.79755644254388, 928.5302254688561 337.01803433544933, 928.0319779147953 607.9259250829368 M927.3583603568375 608.3727849034965 C691.9085609045625 610.4914026011139, 454.6410363851487 609.473309401384, 11.68722377255559 608.3787250308692 M927.7753903331608 608.3467720029503 C572.0424624914675 607.3934375034511, 216.7365697907656 607.608896113509, 12.156919738277793 608.2726864073426 M11.90446570828557 607.3442046527565 C12.736669893005491 462.0400416278839, 12.462277207115292 315.3398609943688, 11.588021049052477 11.764058812111616 M12.055508548244834 608.3331323263794 C10.34977324794531 442.03522821448735, 10.081316247689724 276.1101485807448, 11.823997410759329 12.179014763608574" stroke="#1e1e1e" stroke-width="1.8" fill="none"></path></g><g><path d="M28.273398040745693 25.194877411466692 C29.082769394290573 25.09278732136436, 29.30354904230385 26.09694562541431, 30.050982291070117 26.714951963163557 C30.798415539836384 27.332958300912804, 32.334341165675085 28.08946696830124, 32.757997533343286 28.90291543796218 C33.18165390101149 29.716363907623116, 33.0220038894212 30.74158853865653, 32.59292049707933 31.59564278112918 C32.16383710473745 32.44969702360183, 31.242019287562584 33.501152682153005, 30.183497179292033 34.02724089279807 C29.12497507102148 34.55332910344313, 27.257615595150227 34.91614638646311, 26.241787847456017 34.75217204499956 C25.225960099761807 34.58819770353601, 24.473838104742864 33.89360413518652, 24.08853069312677 33.04339484401676 C23.703223281510677 32.193185552847, 23.847863385674113 30.666706761138936, 23.92994337775946 29.650916297981006 C24.01202336984481 28.635125834823075, 23.979220451622446 27.538046460522942, 24.581010645638862 26.948652065069176 C25.18280083965528 26.35925766961541, 26.92663790278017 26.41270608952996, 27.540684541857953 26.114549925258398 C28.154731180935737 25.816393760986838, 28.12845880286699 25.255490359607567, 28.265290480105573 25.159715079439813 M27.64309253576975 26.28472597172133 C28.513081047371173 26.261598036069778, 29.642885289967996 25.973794198212914, 30.376182333876443 26.36176710653939 C31.10947937778489 26.749740014865864, 31.77309485820674 27.830525890014314, 32.04287479922043 28.61256342168017 C32.312654740234116 29.39460095334603, 32.29444471688468 30.18284342929073, 31.994861979958575 31.05399229653452 C31.695279243032466 31.92514116377831, 31.006699981097313 33.384366998113414, 30.24537837766378 33.8394566251429 C29.484056774230247 34.29454625217239, 28.38152002414011 33.870124504729084, 27.426932359357366 33.784530058711425 C26.472344694574623 33.69893561269377, 25.2540647584837 34.02801962543702, 24.517852388967317 33.32588994903696 C23.781640019450933 32.62376027263691, 22.952490531214597 30.760346803930467, 23.00965814225907 29.571752000311108 C23.066825753303544 28.383157196691748, 24.20076258727697 26.861856926891456, 24.860858055234154 26.194321127320812 C25.520953523191338 25.52678532775017, 26.558549705394068 25.635877338083972, 26.970230950002172 25.566537202887247 C27.381912194610276 25.49719706769052, 27.2770502682643 25.718100815444238, 27.330945522882786 25.77828031614047" stroke="none" stroke-width="0" fill="#e03131"></path><path d="M28.695508562922534 25.438358412948208 C29.544064525982712 25.619551967148542, 30.794019108358547 26.835704532828665, 31.35814016973128 27.449021293297207 C31.92226123110401 28.06233805376575, 31.967588897459862 28.24439433302129, 32.08023493115892 29.118258975759463 C32.19288096485798 29.992123618497637, 32.49677397198994 31.76910153741926, 32.03401637192562 32.69220914972625 C31.571258771861295 33.615316762033245, 30.373161309181246 34.442388425910536, 29.30368933077298 34.656904649601415 C28.234217352364713 34.871420873292294, 26.506063019505696 34.53645588006329, 25.617184501476014 33.97930649187153 C24.728305983446333 33.42215710367977, 24.383733772330608 32.244591262320725, 23.97041822259488 31.314008320450853 C23.557102672859152 30.38342537858098, 22.96760979361153 29.16655363092044, 23.137291203061658 28.39580884065229 C23.306972612511785 27.62506405038414, 24.067679551932542 27.16671149858658, 24.988506679295636 26.689539578841952 C25.90933380665873 26.212367659097325, 28.105866027273457 25.606887777176993, 28.662253967240222 25.53277732218453 C29.218641907206987 25.458666867192065, 28.264453760324468 26.070314957334645, 28.326834319096214 26.244876848887174 M26.642486082038953 25.934047889010078 C27.407631339897875 25.74970584759294, 29.221804773951337 25.413512418877563, 30.092165059832805 25.895581923394065 C30.962525345714273 26.377651427910568, 31.476917614971377 27.95050809812474, 31.864647797327763 28.82646491610909 C32.25237797968415 29.702421734093438, 32.56462607962698 30.24278021491565, 32.41854615397113 31.15132283130016 C32.272466228315274 32.059865447684665, 31.66868067941797 33.59051181028951, 30.98816824339264 34.27772061441613 C30.307655807367308 34.96492941854275, 29.301682374793835 35.33625399438835, 28.335471537819146 35.27457565605988 C27.369260700844457 35.21289731773141, 25.9445365898866 34.76637441223001, 25.190903221544502 33.90765058444533 C24.437269853202405 33.04892675666065, 23.828239094708323 31.283391671849056, 23.81367132776657 30.12223268935181 C23.79910356082482 28.961073706854567, 24.728297902532343 27.643634902270964, 25.103496619893985 26.940696689461852 C25.478695337255626 26.23775847665274, 25.90629666692449 26.19084358746873, 26.06486363193642 25.90460341249714 C26.223430596948347 25.618363237525546, 25.788407179735472 25.308138358644566, 26.054898409965567 25.2232556396323" stroke="#1e1e1e" stroke-width="1" fill="none"></path></g><g><path d="M43.10770209971014 25.71892878451273 C43.94288016646301 25.63195327491593, 45.41952471947174 25.88305307955142, 46.388717383528004 26.444947202035415 C47.35791004758427 27.00684132451941, 48.70590463005687 28.08411648023901, 48.92285808404773 29.090293519416694 C49.13981153803859 30.096470558594376, 48.23239951361873 31.69258022414312, 47.690438107473156 32.48200943710152 C47.14847670132758 33.27143865005991, 46.57258494801359 33.54038120682299, 45.67108964717428 33.82686879716708 C44.76959434633496 34.11335638751117, 43.11794356687608 34.405624110614795, 42.28146630243726 34.20093497916603 C41.44498903799844 33.99624584771726, 41.08616118392246 33.31727556330392, 40.65222606054138 32.598734008474466 C40.218290937160305 31.880192453645012, 39.74666369367485 30.824573108230016, 39.677855562150796 29.8896856501893 C39.609047430626745 28.954798192148584, 39.5605169592816 27.794719515139484, 40.23937727139706 26.989409260230175 C40.91823758351252 26.184099005320867, 43.095390006911416 25.251765816991064, 43.75101743484358 25.05782412073345 C44.40664486277575 24.863882424475836, 44.22981017332728 25.750459032380885, 44.17314183899004 25.825759082684485 M43.440314144466164 25.708829978516853 C44.26452816868725 25.382554955246693, 45.1999431399589 25.66554483967034, 46.1134564552425 26.079609139084717 C47.0269697705261 26.493673438499094, 48.462922530780524 27.24177964957878, 48.92139403616779 28.193215775003125 C49.379865541555056 29.14465190042747, 49.18259246143481 30.884085451707993, 48.86428548756608 31.788225891630777 C48.54597851369735 32.69236633155356, 47.888847621569425 33.16909616357029, 47.01155219295539 33.618058414539824 C46.13425676434136 34.06702066550936, 44.67572467059311 34.65329445619975, 43.600512915881886 34.481999397448014 C42.52530116117066 34.310704338696276, 41.32390698924554 33.28523275689217, 40.560281664688056 32.590288062029394 C39.79665634013057 31.895343367166618, 38.94568539405029 31.360842945485658, 39.018760968536945 30.312331228271344 C39.091836543023604 29.26381951105703, 40.2911191901575 27.001558835984532, 40.99873511160802 26.299217758743517 C41.70635103305854 25.5968766815025, 42.77092443639013 26.102256709624466, 43.264456497240054 26.09828476482526 C43.75798855808998 26.09431282002605, 43.86232316347969 26.420916294466227, 43.95992747670758 26.275386089948274" stroke="none" stroke-width="0" fill="#f08c00"></path><path d="M44.436345013490836 26.03201343763774 C45.284939146117786 25.798034707378424, 45.88914049884443 25.52466664058033, 46.59485444494242 26.080001968636186 C47.300568391040414 26.63533729669204, 48.50065381995029 28.440140635229483, 48.6706286900788 29.364025405972857 C48.84060356020731 30.28791017671623, 48.181230169156024 30.871581209169655, 47.61470366571352 31.623310593096434 C47.04817716227102 32.375039977023214, 46.11526199765807 33.3403759385934, 45.271469669423794 33.874401709533544 C44.42767734118952 34.40842748047369, 43.355680612478565 35.16248918767174, 42.55194969630789 34.82746521873733 C41.74821878013721 34.49244124980292, 40.967877189429096 32.86448413985474, 40.449084172399715 31.864257895927086 C39.930291155370334 30.86403165199943, 39.322489346204534 29.61994680958523, 39.439191594131586 28.826107755171392 C39.55589384205864 28.032268700757555, 40.32607546538632 27.741049683835453, 41.14929765996202 27.10122356944407 C41.97251985453773 26.461397455052687, 43.93346488151626 25.226114626019026, 44.37852476158583 24.987151068823092 C44.8235846416554 24.748187511627158, 43.92750751520405 25.512511388925446, 43.81965694037946 25.667442226268477 M44.22133985604111 26.375650172610836 C44.99008607594993 26.352095858126766, 46.85175923371547 25.968716251495483, 47.49938959324104 26.518217865950604 C48.14701995276661 27.067719480405724, 48.27079498646077 28.489258327858334, 48.10712201319454 29.672659859341557 C47.94344903992831 30.85606139082478, 47.10304359932779 32.930064900491566, 46.517351753643645 33.618627054849945 C45.9316599079595 34.307189209208325, 45.389481913509854 33.696435520145, 44.59297093908965 33.804032785491835 C43.79645996466945 33.91163005083867, 42.65019661944708 34.64877640388311, 41.73828590712242 34.26421064693094 C40.826375194797755 33.87964488997877, 39.53118781703072 32.45074526215232, 39.12150666514167 31.496638243778794 C38.71182551325263 30.54253122540527, 38.75879287183246 29.54126066833151, 39.280198995788155 28.539568536689796 C39.80160511974385 27.53787640504808, 41.33399260060309 26.10331593539913, 42.24994340887582 25.4864854539285 C43.165894217148555 24.869654972457866, 44.25378815537305 24.91191677610366, 44.775903845424565 24.838585647866005 C45.29801953547608 24.76525451962835, 45.3202557619632 24.938501164755827, 45.38263754918492 25.046498684502566" stroke="#1e1e1e" stroke-width="1" fill="none"></path></g><g><path d="M61.59261965023351 26.004719392768642 C62.38264323201464 26.18394176924351, 62.922019368032636 26.588180470412315, 63.3830488795646 27.35843048014986 C63.84407839109656 28.128680489887405, 64.33849658676824 29.634561973554987, 64.35879671942529 30.626219451193915 C64.37909685208233 31.617876928832843, 64.25179505054174 32.749543935009456, 63.504849675506875 33.30837534598343 C62.757904300472006 33.8672067569574, 60.909508570363684 33.84346827512559, 59.877124469216085 33.97920791703775 C58.844740368068486 34.11494755894991, 57.933280884566 34.670403434001024, 57.31054506862128 34.12281319745641 C56.68780925267656 33.575222960911795, 56.43055896705951 31.699348072690423, 56.14070957354773 30.693666497770042 C55.85086018003595 29.68798492284966, 55.23317326499895 28.911412919901927, 55.57144870755061 28.088723747934125 C55.909724150102264 27.266034575966323, 57.23228426228394 26.176655204743113, 58.17036222885764 25.75753146596322 C59.10844019543134 25.338407727183323, 60.612275872009334 25.559981700801604, 61.19991650699281 25.57398131525476 C61.78755714197628 25.587980929707914, 61.77138249588057 25.717289122054122, 61.69620603875849 25.84152915268215 M61.61383264834408 24.845262885709708 C62.57366100366035 25.008865404234562, 63.95927230633188 26.18989887676641, 64.30938633742399 27.25941138013075 C64.65950036851609 28.32892388349509, 63.973975620031794 30.12511020679602, 63.71451683489672 31.26233790589574 C63.45505804976165 32.39956560499546, 63.38711258407741 33.40208985555198, 62.75263362661355 34.08277757472908 C62.118154669149696 34.76346529390618, 60.75603171270614 35.401118782127, 59.90764309011358 35.34646422095835 C59.05925446752102 35.291809659789706, 58.37883794839681 34.53208113394415, 57.662301891058206 33.7548502077172 C56.945765833719605 32.97761928149024, 56.010021813357675 31.646986086521057, 55.60842674608197 30.68307866359663 C55.20683167880626 29.7191712406722, 54.77223487058265 28.66159571053714, 55.252731487403956 27.971405670170626 C55.73322810422526 27.281215629804112, 57.41207558584145 26.84757498865791, 58.49140644700982 26.541938421397546 C59.570737308178195 26.23630185413718, 61.24836861223516 26.40258614526182, 61.72871665441419 26.137586266608434 C62.209064696593224 25.872586387955046, 61.568584229205555 24.92629789235536, 61.373494700084 24.951939149477212" stroke="none" stroke-width="0" fill="#2f9e44"></path><path d="M60.848599682399225 25.823196732421057 C61.77974971596923 25.97866191547534, 63.06305735311354 26.439943351754103, 63.74678984468628 27.170128504008385 C64.43052233625902 27.900313656262668, 65.03196410611459 29.222713911693543, 64.95099463183566 30.204307645946756 C64.87002515755673 31.18590138019997, 63.96433373590402 32.333347865740286, 63.26097299901273 33.05969090952767 C62.55761226212144 33.78603395331505, 61.76322349648937 34.54009179871982, 60.730830210487916 34.562365908671026 C59.698436924486465 34.58464001862223, 57.990689149108334 33.78699983183162, 57.06661328300401 33.19333556923489 C56.142537416899685 32.59967130663816, 55.46781328996899 31.875053119162292, 55.186375013861976 31.000380333090618 C54.904936737754966 30.125707547018944, 54.797484469112206 28.794615675588442, 55.37798362636195 27.94529885280484 C55.9584827836117 27.095982030021236, 57.77485273157045 26.29320365670361, 58.66936995736045 25.904479396389 C59.563887183150456 25.51575513607439, 60.29533955069901 25.570724883771163, 60.74508698110197 25.612953290917183 C61.19483441150493 25.655181698063203, 61.371080063798395 26.0151379878146, 61.36785453977821 26.15784983926512 M58.423792243916296 25.251039444265633 C59.23136018327651 24.97851948964044, 60.55953706555934 25.48063594573368, 61.41838611302056 25.99523148391456 C62.27723516048178 26.509827022095436, 63.18928952758385 27.551790919106992, 63.57688652868362 28.3386126733509 C63.964483529783394 29.12543442759481, 63.955122450132755 29.820422912959327, 63.74396811961917 30.716162009378028 C63.53281378910558 31.61190110579673, 62.99431812313533 33.10635144701042, 62.30996054560211 33.71304725186311 C61.62560296806889 34.3197430567158, 60.44461418903639 34.379634261685254, 59.63782265441987 34.356336838494194 C58.83103111980335 34.33303941530313, 58.02686009519994 34.28355625869319, 57.46921133790298 33.57326271271673 C56.911562580606024 32.86296916674028, 56.37831223658186 31.169688606007192, 56.29193011063812 30.094575562635452 C56.20554798469438 29.019462519263712, 56.48375616671012 27.996096831431245, 56.95091858224054 27.122584452486283 C57.41808099777096 26.24907207354132, 58.742792680626145 25.126801433564186, 59.0949046038206 24.85350128896567 C59.44701652701506 24.580201144367155, 58.92349473008002 25.246885945848305, 59.063590121407266 25.4827835848952" stroke="#1e1e1e" stroke-width="1" fill="none"></path></g><text x="84" y="35" font-family="Virgil, 'Segoe Print', 'Comic Sans MS', Comic Sans, cursive" font-size="14" fill="#868e96">Obsidian  —  Taskgregator</text><g><path d="M11.600168826803564 47.74943863488734 C195.5811703518033 49.093573678888376, 378.47347825802865 49.04290294782072, 927.688967480883 47.749269703403115 M11.891868211515249 47.970438052527605 C331.92356409709896 49.73085636171699, 652.337610332109 49.73331470164657, 927.9874759988859 47.853942222706976" stroke="#1e1e1e" stroke-width="1.2" fill="none"></path></g><g><path d="M23.27916219625622 60.43837548401207 L291.2229887465015 63.28978237416595 L292.68498336467894 594.8319964161143 L22.899002251960336 596.5377043774351" stroke="none" stroke-width="0" fill="#f8f9fa"></path><path d="M22.988872637247322 61.21532616546482 C76.92448760464559 60.48505802773343, 130.01757924006884 60.003633322531364, 293.1463538471103 62.83328346083764 M24.038232639411515 62.561982393209874 C94.28433976055128 63.64963986312674, 165.71733121686984 63.85564604688017, 292.1832768452901 62.18297275841426 M292.2196405836195 61.550611895695326 C292.92877527698647 196.72737349230798, 293.67563403829706 331.34533542156225, 292.06179157458246 596.501096669808 M292.3214919264987 61.85678401928395 C294.07687336890774 171.36107221245766, 293.74228735296805 281.169495957084, 291.71942699391394 595.6604232202097 M291.40417718229924 595.5466733259095 C225.15598739511577 597.4262430777628, 158.85473859473174 599.1037218730035, 25.06858617995776 595.1429543408916 M291.41218817899977 595.694726818485 C203.97964854368675 597.211835033512, 116.6070945041263 596.6352703976484, 24.578303421570187 596.0888734144476 M24.661747550591826 595.696014618054 C23.580971201064436 456.72082177516074, 23.14994315207228 318.0573419602215, 24.639144360646604 62.137432772293685 M24.235393467731775 596.3580808804556 C24.17887856751904 440.4601850041002, 24.00541735321507 284.6403480190411, 23.75599981505424 62.3470724831149" stroke="#1e1e1e" stroke-width="1.4" fill="none"></path></g><text x="40" y="90" font-family="Virgil, 'Segoe Print', 'Comic Sans MS', Comic Sans, cursive" font-size="16" fill="#1e1e1e" font-weight="bold">Taskgregator</text><text x="266" y="90" font-family="Virgil, 'Segoe Print', 'Comic Sans MS', Comic Sans, cursive" font-size="16" fill="#868e96">↻</text><g><path d="M31.998913958109917 104.77567192371934 L284.859429856576 104.73860678132624 L284.88794139865786 127.41925461348146 L32.43944736365229 127.76369085963816" stroke="none" stroke-width="0" fill="#e7f5ff"></path><path d="M32.16300334726718 104.46650633382332 C81.49546874507334 106.4493921539298, 133.4941491538128 105.04508519931574, 284.01823313947284 105.11680317371409 M32.43078125293159 103.61457298073981 C109.41568742127154 103.81148925673095, 186.8526876599328 103.32850743885112, 283.4865553222108 103.86568795826118 M283.77846485432235 103.47698299530893 C284.99432026496527 109.60618022996933, 284.6146958803236 117.6577859500423, 283.26691713985053 127.75725772622972 M283.6418719840236 104.00254080323502 C283.3755397076123 111.997079136502, 284.157899841141 120.51057527540252, 284.0240689617582 127.8328530284576 M284.7196127794352 127.39243163683511 C214.50860576186415 128.80814832836643, 143.46740634591487 129.5382185023994, 32.67308586210856 129.12859080219815 M283.5917289098416 127.5908594446084 C213.30000935312395 128.43340388788567, 143.0886851322818 128.79928714365963, 32.39552751470121 128.11911206207552 M32.27788558062166 127.01486218813807 C30.875066504970192 122.6335489289835, 33.211549679532645 117.3957501122728, 31.271301168762147 105.37871731761842 M31.362849200982602 128.69378063110634 C32.240058588113634 123.25926277441904, 32.61124909731373 117.14438021359965, 32.14259199323133 104.65810526935384" stroke="#1971c2" stroke-width="1" fill="none"></path></g><text x="44" y="120" font-family="Virgil, 'Segoe Print', 'Comic Sans MS', Comic Sans, cursive" font-size="14" fill="#1971c2">★ Today</text><g><path d="M247.5950352370739 106.74592879414558 L266.1288222014904 106.57648814320564 L266.25916067957877 124.94516394734383 L246.40890223383903 126.51972964406013" stroke="none" stroke-width="0" fill="#f8f9fa"></path><path d="M245.3162151634693 109.02215582728385 C249.88582696579397 109.16981454327703, 253.44179741069675 107.67643475964665, 265.50248549580573 109.47736803889275 M246.0213509887457 108.23357774317265 C250.59903526343408 107.4806263345182, 256.11786638870836 107.96586450514198, 266.5140114158392 108.04505397379398 M267.5285411149263 107.28815860927105 C266.9504694051147 113.29654741689563, 268.268586222589 121.45427399307489, 268.30388766109945 126.44128893077374 M267.68655901998284 107.29045359045267 C266.783870740056 114.47677894994617, 267.1227238608598 120.91824499547482, 266.37902658551934 126.03230960279703 M266.2448257744312 127.38495756983757 C259.3044135008007 124.64345298859476, 254.09762549474834 125.54705806824565, 244.9833055794239 127.5436243712902 M267.10517495572566 126.10028783380986 C259.7107409890741 126.10168301573395, 254.3681960605085 126.5582529734671, 245.82319549024106 125.86950942575932 M245.70330067455768 126.26686157405376 C245.5049253514409 119.53996149972082, 246.47788469821214 115.04923513144256, 247.32192480862142 109.35243696391582 M245.538579569757 126.69441173940896 C245.72923685145378 120.98742782011628, 245.81642066073417 116.80122911810875, 245.86666420072316 108.54763310819864" stroke="#e03131" stroke-width="1" fill="none"></path></g><text x="256.5" y="121" font-family="Virgil, 'Segoe Print', 'Comic Sans MS', Comic Sans, cursive" font-size="11" fill="#e03131" text-anchor="middle">3</text><text x="44" y="150" font-family="Virgil, 'Segoe Print', 'Comic Sans MS', Comic Sans, cursive" font-size="14" fill="#1e1e1e">⚑ Flagged</text><g><path d="M244.7147869989276 137.88322523385287 L268.56526331156493 136.42531255036593 L268.0621187135577 155.13242214471103 L245.54934734553098 156.14571612626315" stroke="none" stroke-width="0" fill="#f8f9fa"></path><path d="M244.40202592164277 138.19326361864805 C251.23011831408365 138.2983052704409, 254.59388728123156 137.69025649762898, 266.467609770596 138.19123644083737 M246.30241853818296 137.6452566303313 C250.59898702660576 137.4270576512441, 256.28375970814375 137.45655773039906, 266.8497119866312 137.84730667248368 M267.19496817067267 137.4685665397346 C266.3791928753704 145.9373747877404, 268.1952155337185 152.34298769272863, 267.8650820441544 157.25535337731242 M267.18088697098193 137.4349762699753 C266.42746427705885 142.20861789744347, 267.50326005390286 146.92015724524856, 267.3919779147953 155.56592508293687 M265.4870670631528 155.61420544832944 C261.3996341758408 156.0872256380245, 253.69250676948576 156.5560109716579, 244.8524708583951 155.6208055898547 M267.15043370351196 156.78530222550035 C260.94627803852785 155.69996716652065, 255.2166058635339 155.93936562214046, 245.7743552647531 156.7029848970473 M246.62446570828558 154.62420465275645 C245.01217161901297 151.91695957470685, 244.73777893312277 147.81369688801468, 246.30802104905248 137.04405881211161 M246.41550854824484 156.6931323263794 C245.65809869402645 151.8887992111221, 246.10964169377087 146.7372905740142, 245.46399741075933 138.53901476360858" stroke="#f08c00" stroke-width="1" fill="none"></path></g><text x="256.5" y="151" font-family="Virgil, 'Segoe Print', 'Comic Sans MS', Comic Sans, cursive" font-size="11" fill="#f08c00" text-anchor="middle">5</text><text x="44" y="180" font-family="Virgil, 'Segoe Print', 'Comic Sans MS', Comic Sans, cursive" font-size="14" fill="#1e1e1e">▣ All</text><g><path d="M245.0345387607813 169.02052167356015 L281.80170442163944 169.4741369575262 L280.66507674753666 185.31968034207821 L244.68979245722295 185.77170260846614" stroke="none" stroke-width="0" fill="#f8f9fa"></path><path d="M246.68783667981626 167.36437141001224 C252.17579430323093 167.82345054902135, 261.34874643348155 168.10073278702794, 281.4327340453863 166.905104842782 M246.58348608762026 168.6569355174899 C255.975321479328 168.58174134127793, 265.6024184066802 168.1555033289641, 281.1854125574231 167.64955937117338 M280.86139522641895 167.64897447019814 C279.80791634562615 175.6982021585852, 282.12184484484794 183.23170139238238, 281.42627642720936 185.1894178238511 M280.6752149219811 167.57949894949795 C281.22305781406163 173.5404568449408, 281.5957962469459 178.68206949502232, 280.96492924407124 186.53954056307674 M281.92930835187434 187.04345332682132 C269.4677320899442 187.61653272949158, 257.63314252234994 187.65049831710755, 244.7216361373663 186.89798680841923 M281.1956924512982 185.87031661719084 C270.80073953401296 186.5082786089927, 262.50286455862226 186.53050556249917, 245.72551503926516 185.93646036833525 M244.66563074201346 185.86154773145915 C247.111417886585 180.6939576496929, 245.58967316803339 176.2581586445868, 245.29411728948355 167.61568066030742 M245.85243752673267 186.69185291334986 C245.87496053659916 182.79017060212792, 245.25086272680758 178.1133520299196, 246.5013306207955 168.5303964190185" stroke="#868e96" stroke-width="1" fill="none"></path></g><text x="263.5" y="181" font-family="Virgil, 'Segoe Print', 'Comic Sans MS', Comic Sans, cursive" font-size="11" fill="#868e96" text-anchor="middle">128</text><text x="40" y="216" font-family="Virgil, 'Segoe Print', 'Comic Sans MS', Comic Sans, cursive" font-size="11" fill="#868e96" font-weight="bold">LISTS</text><text x="44" y="238" font-family="Virgil, 'Segoe Print', 'Comic Sans MS', Comic Sans, cursive" font-size="14" fill="#1e1e1e"># Follow-up</text><g><path d="M249.59255285561085 226.51889319121838 L270.0932333022356 226.26473221480848 L270.28874101936816 244.81774592101573 L249.41335335075854 243.9795944660902" stroke="none" stroke-width="0" fill="#f8f9fa"></path><path d="M247.77432274520396 225.1332337409258 C252.52874044869094 226.87072181491556, 257.3626961160451 224.63065213947, 267.55372824370863 227.41605205833912 M247.63202648311852 226.75036661475897 C253.19855289515107 225.53693950177728, 257.77679958306254 226.26479675771296, 268.6710171237588 225.66758096069097 M269.0728116723895 227.0922379139066 C268.133704107672 231.06482112534346, 268.67087933388353 238.26141098961236, 268.79583149164915 243.9419333961606 M268.9498385299742 225.29568038567902 C269.25180611008403 229.95516842491924, 269.7600857912898 234.9373674932122, 268.42853987827897 243.68846440419554 M270.26723866164684 243.67743635475637 C264.0566202512011 244.28117948289216, 257.2464382421225 244.03658710236846, 248.87495836913587 245.5154365569353 M269.5577624335885 244.55043175071478 C263.46611148361114 244.80452452360095, 258.05229409076276 244.68937946020068, 247.3347932353616 244.20426413863896 M248.27495101183652 245.12029236108066 C247.76138802716136 240.42994224958122, 247.78082704731824 236.21385269716382, 247.8228872129321 227.30865544587374 M247.66786935463549 244.68161760911346 C247.88185527718068 237.92114173017444, 248.73263099110127 232.72184367716312, 248.15999630108476 226.46144966229795" stroke="#868e96" stroke-width="1" fill="none"></path></g><text x="258.5" y="239" font-family="Virgil, 'Segoe Print', 'Comic Sans MS', Comic Sans, cursive" font-size="11" fill="#868e96" text-anchor="middle">7</text><text x="44" y="266" font-family="Virgil, 'Segoe Print', 'Comic Sans MS', Comic Sans, cursive" font-size="14" fill="#1e1e1e"># Someday</text><g><path d="M249.59255285561085 254.51889319121838 L270.0932333022356 254.26473221480848 L270.28874101936816 272.8177459210157 L249.41335335075854 271.9795944660902" stroke="none" stroke-width="0" fill="#f8f9fa"></path><path d="M247.77432274520396 253.1332337409258 C252.52874044869094 254.87072181491556, 257.3626961160451 252.63065213947, 267.55372824370863 255.41605205833912 M247.63202648311852 254.75036661475897 C253.19855289515107 253.53693950177728, 257.77679958306254 254.26479675771296, 268.6710171237588 253.66758096069097 M269.0728116723895 255.0922379139066 C268.133704107672 259.0648211253434, 268.67087933388353 266.26141098961233, 268.79583149164915 271.9419333961606 M268.9498385299742 253.29568038567902 C269.25180611008403 257.9551684249193, 269.7600857912898 262.9373674932122, 268.42853987827897 271.68846440419554 M270.26723866164684 271.67743635475637 C264.0566202512011 272.2811794828922, 257.2464382421225 272.0365871023685, 248.87495836913587 273.5154365569353 M269.5577624335885 272.5504317507148 C263.46611148361114 272.8045245236009, 258.05229409076276 272.68937946020066, 247.3347932353616 272.20426413863896 M248.27495101183652 273.12029236108066 C247.76138802716136 268.4299422495812, 247.78082704731824 264.2138526971638, 247.8228872129321 255.30865544587374 M247.66786935463549 272.68161760911346 C247.88185527718068 265.92114173017444, 248.73263099110127 260.7218436771631, 248.15999630108476 254.46144966229795" stroke="#868e96" stroke-width="1" fill="none"></path></g><text x="258.5" y="267" font-family="Virgil, 'Segoe Print', 'Comic Sans MS', Comic Sans, cursive" font-size="11" fill="#868e96" text-anchor="middle">9</text><text x="40" y="302" font-family="Virgil, 'Segoe Print', 'Comic Sans MS', Comic Sans, cursive" font-size="11" fill="#868e96" font-weight="bold">CONTEXT</text><text x="42" y="324" font-family="Virgil, 'Segoe Print', 'Comic Sans MS', Comic Sans, cursive" font-size="14" fill="#1e1e1e" font-weight="bold">▾ Projects</text><g><path d="M247.58964131474494 311.5759040534496 L274.86456406712534 312.9720842063427 L274.6767243683338 329.36198384165766 L247.12202065587044 329.85907952189444" stroke="none" stroke-width="0" fill="#f8f9fa"></path><path d="M246.4351159751415 312.6832360565662 C254.9335055336356 312.943675976634, 257.7836223870516 312.0041639145613, 276.9052360236645 312.648098307848 M248.70858799517154 311.45111492574216 C259.18706222623587 311.3169052855969, 269.1944091379642 311.82823999094967, 275.79500776827336 311.2199823230505 M276.97944829165937 312.8684866887331 C274.6953431730866 319.9811629875004, 277.37306925112006 325.89178667396305, 276.1147554320097 331.11945854008195 M275.5353741636872 312.04625534623864 C275.2920474690199 317.2693768890202, 275.69917426764965 323.3360589176416, 275.3542838564515 329.43603477090596 M276.97582909464836 330.2462277710438 C268.3268556013703 329.5863020492792, 259.8698437780142 331.3119144989252, 246.77616154551507 329.2939635574818 M275.6741841942072 330.54523857533934 C268.7102246001363 329.3725657539368, 263.57064549922944 330.3221389846802, 248.62215792238712 330.18507154881956 M247.78407227694987 329.6728806477785 C248.7816413962245 324.0272992949188, 246.90550150746105 315.3040793922544, 249.0190315169096 311.270352743268 M248.24214816957712 330.25429365724324 C248.3137106964588 326.8991863261163, 248.460456025362 321.84636994957924, 247.5892884531617 312.4629225692153" stroke="#868e96" stroke-width="1" fill="none"></path></g><text x="262" y="325" font-family="Virgil, 'Segoe Print', 'Comic Sans MS', Comic Sans, cursive" font-size="11" fill="#868e96" text-anchor="middle">21</text><g><path d="M49.38516142599285 338.0471941006929 C49.479832645811136 340.487540926598, 49.14651340381056 343.3000081901252, 48.585440516397355 351.47916701681913 M49.22996566239745 338.2324895870313 C48.81342555265129 342.42176612474026, 49.166928187415 347.12512099344286, 49.20697625223547 351.19067165847866" stroke="#ced4da" stroke-width="0.8" fill="none"></path></g><text x="57" y="348" font-family="Virgil, 'Segoe Print', 'Comic Sans MS', Comic Sans, cursive" font-size="13" fill="#1971c2" font-weight="normal">▾ Roadmap</text><g><path d="M248.86368359923364 337.2710186064243 L268.7391507089138 336.5438699781895 L269.34771718382837 354.65618057847024 L248.89270333647727 354.4827550947666" stroke="none" stroke-width="0" fill="#f8f9fa"></path><path d="M246.8945741713047 335.9898230493069 C253.78504313640298 337.11040213957426, 257.01086976751685 335.01883433714505, 267.46821861863134 334.5809399545193 M247.45420918166639 335.7314082175493 C253.5812841106206 336.48735088965293, 260.36660794094206 335.66097139975426, 268.8518214672804 335.2740470916033 M267.73369762957094 335.43827701985833 C269.2487064592242 342.5610198877752, 269.4761727182269 351.06091546565295, 270.103420625329 354.49700525701047 M269.3592449876666 336.63479965478183 C269.53029235708715 341.55351162895556, 268.9040429006815 347.86195291221145, 269.6251157590747 353.7628062942624 M267.7896200239658 353.3481768548489 C264.5456219155341 353.4237879787386, 257.81393459811807 354.3137265239656, 246.83612824082374 355.14631280303 M269.760394141078 353.3855839759111 C264.3883751880378 353.3902505052388, 258.1830035738647 353.92770768526196, 247.4499925106764 353.38848285973074 M246.8520330864191 354.56911453664304 C247.3235518179536 349.6352530945838, 247.19096314531564 343.7311615499854, 247.72534128725528 334.589277099967 M247.6884436532855 354.22358774453403 C248.04639491820333 347.3320997102559, 248.297760818243 341.43184489130977, 248.00528549402952 336.2560822990537" stroke="#868e96" stroke-width="1" fill="none"></path></g><text x="258.5" y="349" font-family="Virgil, 'Segoe Print', 'Comic Sans MS', Comic Sans, cursive" font-size="11" fill="#868e96" text-anchor="middle">9</text><g><path d="M63.49448533974588 361.82183487333356 C63.52880977708846 364.4671322102472, 63.77558263141662 366.906583981365, 63.833409859761595 374.8073405519873 M63.822292548008264 361.80358490686865 C63.982709144577385 365.6810409808904, 64.21311603330076 368.81142899308355, 64.22544070441276 375.20824270825835" stroke="#ced4da" stroke-width="0.8" fill="none"></path></g><text x="72" y="372" font-family="Virgil, 'Segoe Print', 'Comic Sans MS', Comic Sans, cursive" font-size="13" fill="#1e1e1e" font-weight="normal">Q1 Planning</text><g><path d="M246.9377258837223 359.76613315939903 L269.6137373507023 360.11565575003624 L267.8187099993229 376.75037731528283 L247.46338601708413 379.1064306676388" stroke="none" stroke-width="0" fill="#f8f9fa"></path><path d="M247.35403236746788 359.2964100420475 C250.84803549535573 360.89817959150673, 255.86102666035293 360.85455604872107, 268.23120121359824 359.7137816011906 M247.7998303681612 360.0117015093565 C256.38012642674147 360.0497024910748, 265.1480476073921 359.48560880592464, 268.9086351662874 359.32811186015607 M268.36794696748257 360.88806735098365 C268.2100697453618 364.42087678804995, 268.86727618533376 369.0300442573428, 268.21208581864835 377.87455197393894 M268.74311581164596 359.783343963325 C269.6165372451544 367.277646368891, 269.39691153371336 373.8278469067812, 269.45594766169785 378.0895778176189 M268.80341095328333 376.45012593865397 C262.430918116495 376.8743315650523, 258.49108519181607 376.92859620586034, 246.89609493613244 377.79866204857825 M269.2466040879488 377.825929376483 C263.8412643749267 377.7810701241195, 258.1448388464749 377.9064112534225, 247.87782709896564 378.1918941706419 M248.79999389588832 376.58534842550756 C249.03346223968268 371.64320689424875, 247.76442478317023 364.95824370771646, 249.31165105760098 360.788201456666 M248.57473913699388 378.19288183182476 C247.49107913994789 372.80501309439535, 247.84706561112404 368.2173198330402, 248.42128253489733 360.049242028892" stroke="#868e96" stroke-width="1" fill="none"></path></g><text x="258.5" y="373" font-family="Virgil, 'Segoe Print', 'Comic Sans MS', Comic Sans, cursive" font-size="11" fill="#868e96" text-anchor="middle">4</text><g><path d="M63.643809253498915 385.5964756459743 C63.61778690836578 388.44672349389646, 64.44465185902267 391.5531597726047, 64.08137920312583 399.1755140871555 M63.93461943361908 385.894680226706 C64.15199273650349 391.0203158370406, 64.25930387918652 395.69773699272423, 64.24390515659005 399.225813758038" stroke="#ced4da" stroke-width="0.8" fill="none"></path></g><text x="72" y="396" font-family="Virgil, 'Segoe Print', 'Comic Sans MS', Comic Sans, cursive" font-size="13" fill="#1e1e1e" font-weight="normal">Team Notes</text><g><path d="M248.211768168211 385.46124771237373 L270.4883239924908 383.687441521883 L269.4897028148174 402.0445740520954 L249.23406869769096 400.5301062405109" stroke="none" stroke-width="0" fill="#f8f9fa"></path><path d="M247.81349056363106 382.60299703478813 C251.11102785430847 385.02195704343916, 257.911183553189 383.8262777602971, 268.99418380856514 384.8466232478619 M248.14545155465603 384.2919948011637 C254.97896874286232 383.9480540924966, 261.52948727384205 383.646246212095, 268.96544886529443 383.38217662870886 M269.0021963053942 383.45785768210885 C269.7634330314994 387.00073368832466, 267.97037965244056 391.3191730490327, 269.20075101196767 401.2520986908674 M269.56698663562537 384.3718882718682 C269.4147821332216 387.9617811088264, 269.6017801667452 392.59374090135094, 269.286779564321 402.4163493409753 M269.8172018826008 402.75207502245905 C263.51621431745593 403.52487515136596, 259.1682357855141 402.7434658877551, 246.95606163144112 400.4510112941265 M268.7328140348196 402.2662747770548 C263.2941535618156 402.1718897430003, 256.50667411908506 401.88511482158304, 248.3056616872549 401.39530548155307 M247.86795470535756 401.4815823143721 C247.86337266141174 397.25116069391373, 248.3378864210248 393.3853258654475, 248.01796082794667 384.107125813365 M248.02103462070227 402.16217591911555 C248.66376336169245 398.27792647853494, 247.68437040400505 395.00279477477073, 247.39727957576514 383.84240175873043" stroke="#868e96" stroke-width="1" fill="none"></path></g><text x="258.5" y="397" font-family="Virgil, 'Segoe Print', 'Comic Sans MS', Comic Sans, cursive" font-size="11" fill="#868e96" text-anchor="middle">5</text><g><path d="M48.793133167251945 410.411116418615 C48.70676403964311 412.42631477754566, 49.07372108662874 415.15973556384444, 49.329348546490074 422.50368762232364 M49.0469463192299 409.9857755465433 C48.80127632842958 413.75959069319066, 48.78549172507226 417.3840449923649, 48.74236960876733 423.2433848078176" stroke="#ced4da" stroke-width="0.8" fill="none"></path></g><text x="57" y="420" font-family="Virgil, 'Segoe Print', 'Comic Sans MS', Comic Sans, cursive" font-size="13" fill="#1971c2" font-weight="normal">▾ Games</text><g><path d="M249.48581045269967 407.95636226534845 L268.1629106342792 407.2592272937298 L267.960695630312 427.338770788908 L247.8047513782978 425.1537818133831" stroke="none" stroke-width="0" fill="#f8f9fa"></path><path d="M248.27294875979425 409.10958402752874 C251.37402021326125 408.8097344953716, 256.7613404460251 406.461999471873, 269.75716640353204 406.77946489453313 M248.49107274115084 408.57228809297084 C251.9778110589832 407.51040569391847, 257.91092694029214 407.4708836182654, 269.0222625643015 407.4362413972616 M269.63644564330576 408.90764801323417 C268.72479631763696 412.4605905885995, 270.24148311954735 416.48830184072256, 270.189416205287 424.6296454077959 M268.9508574596047 407.5204325804114 C269.21302702128884 412.2459158487618, 268.366648799777 417.11963489592074, 269.1176114669442 425.30312086433173 M267.63099281191825 425.8540241062641 C264.6015105184168 426.9754187376797, 259.84538637921213 425.3583355696499, 247.0160283267498 426.30336053967477 M268.2190239816904 426.70662017762663 C262.7470427487046 426.226709361881, 254.86850939169526 425.5278183897435, 248.73349627554416 426.19871679246427 M246.93591551482677 426.3778162032366 C249.28528308314083 419.2591144935787, 248.62334805887937 414.6124080231786, 246.72427059829235 407.42605017006395 M247.46733010441065 426.1314700064063 C248.10844758343697 420.1508398626745, 248.67367519688605 414.58826971650126, 247.81327661663295 407.6355614885688" stroke="#868e96" stroke-width="1" fill="none"></path></g><text x="258.5" y="421" font-family="Virgil, 'Segoe Print', 'Comic Sans MS', Comic Sans, cursive" font-size="11" fill="#868e96" text-anchor="middle">6</text><g><path d="M63.942457081004974 434.1857571912557 C63.79574117092044 436.4059060611948, 63.7027903142348 438.7663113550842, 63.537317889854315 446.8718611574918 M64.15927320484072 434.07687086638066 C63.86655992035568 436.49886554934085, 63.72767957095802 439.07035299200567, 63.76083406094462 446.74095585759727" stroke="#ced4da" stroke-width="0.8" fill="none"></path></g><text x="72" y="444" font-family="Virgil, 'Segoe Print', 'Comic Sans MS', Comic Sans, cursive" font-size="13" fill="#1971c2" font-weight="normal">▾ StellarBurn</text><g><path d="M247.55985273718835 430.45147681832316 L269.0374972760677 430.83101306557654 L269.6316884458065 449.4329675257206 L249.57543405890465 449.77745738625526" stroke="none" stroke-width="0" fill="#f8f9fa"></path><path d="M248.7324069559574 432.4161710202694 C251.63701257221402 432.933511947304, 255.61149733886126 432.63372118344904, 270.52014899849894 431.91230654120443 M247.2366939276457 431.252581384778 C254.77665337510408 432.67275729534026, 262.69236660674215 431.29552102443574, 269.07907626330854 431.4903061658144 M270.2706949812174 431.47743834435937 C270.27815960377455 437.92044748887423, 269.3445865866542 441.65743063241246, 268.2980813986063 450.8871921247244 M268.3347282835841 432.10897688895466 C269.0112719093561 437.97005058869723, 268.57151743280883 443.08552889049054, 268.94844336956737 449.6298923876882 M268.64478374123576 448.9559731900692 C261.4868067193776 450.4259623239935, 252.12253697291018 451.17320525154474, 247.0759950220585 448.955709785223 M269.3052339285612 449.5469655781984 C262.1999319355935 450.6175289807618, 254.83034466430544 449.5065219579041, 247.56133086383343 449.40212810337545 M248.883876324296 451.2740500921011 C248.11519350486995 444.8670682932437, 249.19680969673396 443.03949018090964, 248.31058036863803 430.744974526763 M248.35362558811903 450.1007640936971 C247.5531318051815 445.62375324681403, 248.22297998976705 439.9337446582317, 248.22927365750076 431.42872121840713" stroke="#868e96" stroke-width="1" fill="none"></path></g><text x="258.5" y="445" font-family="Virgil, 'Segoe Print', 'Comic Sans MS', Comic Sans, cursive" font-size="11" fill="#868e96" text-anchor="middle">6</text><g><path d="M79.09178099475801 457.9603979638964 C78.88471830219775 460.38549734484405, 79.37185954184086 463.4128871463239, 78.78528723321855 471.24003469265995 M78.75160009045153 458.16796618621794 C79.03584351228177 461.838140405491, 78.77386741684377 465.95666099164634, 78.7792985131219 470.75852690737696" stroke="#ced4da" stroke-width="0.8" fill="none"></path></g><text x="87" y="468" font-family="Virgil, 'Segoe Print', 'Comic Sans MS', Comic Sans, cursive" font-size="13" fill="#1e1e1e" font-weight="normal">design</text><g><path d="M248.83389502167702 456.14659137129786 L269.9120839178562 454.40279883742335 L268.10268126130103 474.72716426253317 L248.14611673951148 474.40113295912744" stroke="none" stroke-width="0" fill="#f8f9fa"></path><path d="M249.19186515212058 455.72275801301004 C251.90000493116676 456.72128939923647, 257.66165423169736 455.26944289502507, 268.0831315934658 457.0451481878757 M247.5823151141405 455.5328746765852 C253.37549569122493 456.23510889676214, 259.0738062731922 456.72015843060615, 269.13588996231556 455.5443709343672 M268.02494431912896 456.9272286754847 C269.23952288991217 460.50030438914894, 268.735690053761 466.8265594241023, 269.28674659192563 474.26473884165284 M269.1585991075635 456.69752119749785 C269.09751679742334 462.2541853286326, 269.0643860658407 469.05142288506033, 268.77927527219055 473.9566639110446 M269.6585746705532 475.25792227387427 C262.5721029203385 473.8765059103072, 252.79968756660818 473.78807493343953, 247.13596171736717 474.80805903077123 M268.79144387543204 473.98731097877027 C261.65282112248246 473.0723485996425, 253.19217993691564 473.14922552606464, 247.98916545212268 474.2055394142866 M247.95183713376522 473.2902839809656 C246.94510392659902 469.75502209290863, 246.8902713345885 464.2665723386407, 247.01689013898374 456.94389888346194 M247.7999210718274 474.0700581809878 C248.72581602692603 467.4966666309536, 248.06028478264807 459.51921959996224, 248.64527069836856 456.66188094824554" stroke="#868e96" stroke-width="1" fill="none"></path></g><text x="258.5" y="469" font-family="Virgil, 'Segoe Print', 'Comic Sans MS', Comic Sans, cursive" font-size="11" fill="#868e96" text-anchor="middle">6</text><g><path d="M49.24110490851104 481.7350387365371 C48.97369543347508 484.36508862849325, 49.00092876944691 487.0194629375637, 49.03325657658279 494.56820822782817 M48.86392697606236 482.2590615060553 C49.205127104207875 485.0974152616412, 48.820055262729525 487.64296899128703, 48.79776296529919 494.7760979571566" stroke="#ced4da" stroke-width="0.8" fill="none"></path></g><text x="57" y="492" font-family="Virgil, 'Segoe Print', 'Comic Sans MS', Comic Sans, cursive" font-size="13" fill="#1e1e1e" font-weight="normal">Website Redesign</text><g><path d="M246.9079373061657 478.6417059242725 L267.5866705596447 481.1745846092701 L269.7736740767956 496.82136099934576 L246.71679942011832 499.0248085319996" stroke="none" stroke-width="0" fill="#f8f9fa"></path><path d="M246.45132334828378 479.02934500575066 C252.16299729011953 480.5090668511689, 256.51181112453344 481.10516460660097, 268.8461141884327 478.97798983454703 M247.92793630063534 479.81316796839235 C256.1743380073458 479.79746049818397, 263.8552459396422 480.54479583677653, 269.1927036613226 479.59843570291997 M268.6591936570406 479.4970190066099 C267.9128861760497 485.9601612894237, 267.83879352086785 491.99568821579214, 270.27541178524496 497.64228555858136 M268.5424699315429 479.84606550604104 C268.89576168549064 486.538320068568, 269.2692546988726 493.5773168796301, 268.6101071748137 498.28343543440104 M267.47236559987067 498.35987135767937 C260.4573991212994 497.32704949662093, 253.47683816030622 496.4029446153343, 247.19592841267587 497.4604082763195 M268.2776538223028 498.42765637934207 C261.1057103093714 497.46316821852326, 253.15401520952582 498.72792909422515, 248.41700004041195 497.40895072519777 M247.01979794323444 498.18651786983014 C248.6550143483281 491.7629758925736, 247.4637329724431 485.49365449637173, 248.60319990932942 480.26282324016097 M248.6862165555358 498.0393522682786 C248.17050024867058 491.5295800150931, 247.6095895755291 486.3046945416927, 247.62126773923634 480.4550406780839" stroke="#868e96" stroke-width="1" fill="none"></path></g><text x="258.5" y="493" font-family="Virgil, 'Segoe Print', 'Comic Sans MS', Comic Sans, cursive" font-size="11" fill="#868e96" text-anchor="middle">6</text><text x="42" y="516" font-family="Virgil, 'Segoe Print', 'Comic Sans MS', Comic Sans, cursive" font-size="14" fill="#1e1e1e" font-weight="bold">▾ People</text><g><path d="M248.18197959065438 504.3368204772472 L275.46125720143317 504.7463703811169 L275.2446668922901 522.1155577361584 L248.48748210072517 520.4484841048718" stroke="none" stroke-width="0" fill="#f8f9fa"></path><path d="M246.91078154444693 505.53593199849126 C253.8434864744544 504.65093363463876, 258.1969616681338 504.09497564971446, 276.6090967833996 504.1108314812183 M248.27355748713018 504.09346126019955 C255.07474340051414 503.7499102714062, 262.4398117601872 504.75953141474724, 276.2495173603296 503.65250047147276 M276.2934429949522 504.9468093377352 C276.75424946218726 508.54001818969846, 277.10989698797465 517.164817007482, 275.3840769785643 521.0198322755099 M276.36634075552223 504.43460981458423 C275.6940065735579 508.6624548085034, 276.4741233319044 512.3432108741999, 275.44093907743695 522.6102069577574 M275.4861565291882 521.4618204414844 C266.3454167976975 520.7231646686793, 259.9594317048788 522.1633858829737, 247.25589510798454 523.3127575218678 M276.36386376917363 521.2680017799139 C270.3068265870213 521.8897872505188, 264.01230466365814 522.7424320755005, 247.2448346287012 522.212362036109 M248.96775875270367 523.0827517586946 C247.1969247700572 517.3709296922385, 247.74919461029768 511.04073665410283, 247.3095096796751 503.58174759685994 M248.13251203924418 522.0086463555693 C247.9031844704151 517.0024933992325, 247.44689436841009 513.0901694834232, 248.03726478010415 504.24820040792224" stroke="#868e96" stroke-width="1" fill="none"></path></g><text x="262" y="517" font-family="Virgil, 'Segoe Print', 'Comic Sans MS', Comic Sans, cursive" font-size="11" fill="#868e96" text-anchor="middle">31</text><g><path d="M48.49975273601711 530.3243202818185 C49.15164969602972 532.3242711957917, 49.29906722465903 535.2726145200431, 48.48919526331127 543.3045552981645 M49.088580747284 529.9212521457299 C48.919694288060064 533.1759649739414, 48.808430954501034 536.7355849905684, 48.83469186965376 542.8112400567159" stroke="#ced4da" stroke-width="0.8" fill="none"></path></g><text x="57" y="540" font-family="Virgil, 'Segoe Print', 'Comic Sans MS', Comic Sans, cursive" font-size="13" fill="#1e1e1e" font-weight="normal">Alex</text><g><path d="M249.45602187514305 526.831935030222 L269.33584384322165 528.3181561529636 L269.91565970778464 547.4097544729709 L247.058164781332 545.0721596777439" stroke="none" stroke-width="0" fill="#f8f9fa"></path><path d="M247.37023974061012 528.8425189912319 C252.68898200802505 528.4206217550337, 257.4121249102056 526.712608029753, 270.3720793783665 529.2436731278897 M248.619178673625 528.3737545520067 C255.97202263958752 528.8581637010277, 263.4181252725422 528.5300706491173, 269.3063310593367 527.7065652400255 M269.9276923328638 527.5165996688604 C268.42761274832486 533.9998750899732, 269.21300045508144 539.453945799172, 269.3727421718836 547.2773789924383 M268.75021157950164 527.5831541231274 C268.49225146162513 532.9465895484387, 268.23899196493625 538.3091048687696, 269.7117709800601 545.496978481114 M269.49994745850563 544.5637695252896 C262.62799152322117 544.5641366692483, 258.03113934770226 545.1686839791238, 247.31586180329322 545.965106767416 M268.85007371604445 545.7083471804857 C264.21148868314924 545.9088074562848, 259.8776857547462 546.3493362305462, 247.67266921699047 545.4157733470201 M248.0357195621729 545.0989856475592 C248.9068351917863 539.3788834919036, 248.32265624815227 532.2678188118339, 248.89581945002078 526.9006719535589 M247.57880752295256 545.9779404428601 C247.34786869215966 538.8754067833721, 248.4361991612911 532.6756444251538, 248.45326182097196 528.0413601377606" stroke="#868e96" stroke-width="1" fill="none"></path></g><text x="258.5" y="541" font-family="Virgil, 'Segoe Print', 'Comic Sans MS', Comic Sans, cursive" font-size="11" fill="#868e96" text-anchor="middle">2</text><g><path d="M48.64907664977014 554.0989610544592 C49.24062682730705 556.3038624794408, 48.928136452265086 558.8791903112829, 48.737164606675506 566.6327288333326 M49.20090763289481 554.0123474655672 C49.08897787998617 558.5152398300917, 48.85461880038678 563.6218929902092, 48.85315632183105 566.8288111064956" stroke="#ced4da" stroke-width="0.8" fill="none"></path></g><text x="57" y="564" font-family="Virgil, 'Segoe Print', 'Comic Sans MS', Comic Sans, cursive" font-size="13" fill="#1e1e1e" font-weight="normal">Jordan</text><g><path d="M247.53006415963173 552.5270495831967 L270.21043048501014 551.8899419248104 L268.38665252327917 569.5039512097835 L248.82884746193886 569.695835250616" stroke="none" stroke-width="0" fill="#f8f9fa"></path><path d="M247.8296979367733 552.1491059839725 C252.95197436697782 552.5443992069661, 256.26228180304173 552.8843297413289, 267.93506197333335 551.1765147745609 M247.36479986011983 552.6540478438139 C254.57086495570837 552.4205153024494, 259.79956493899226 552.3547080552876, 269.3631447583437 551.7606300085783 M267.6819416707754 552.9663899999857 C270.26897603446247 559.459731990248, 268.6041039221883 564.6230745908618, 270.3614073652029 570.6549257093668 M269.574082403481 552.1716984316706 C268.2904963496924 557.2307242883742, 268.4438605979681 562.8349988633395, 269.5426028826833 569.8237500044703 M270.5137383878231 570.8657186090946 C263.713287724182 571.214680255562, 258.70828994140027 570.9835536610186, 247.37582849860192 568.6174560129642 M268.3362836629152 570.1486925810575 C263.66437787003815 570.2996270751655, 258.23952102735643 570.3280397987068, 248.10050380527974 570.2191846579314 M247.1036803716421 569.9952195364236 C247.73674561351538 564.9868372915685, 248.89611788600683 560.694900969565, 247.60212922036646 553.0995963102579 M248.46510300666094 569.9472345301509 C248.2325529139042 564.3483201675117, 247.98550395417212 558.0211193668841, 247.42925886183977 551.834519867599" stroke="#868e96" stroke-width="1" fill="none"></path></g><text x="258.5" y="565" font-family="Virgil, 'Segoe Print', 'Comic Sans MS', Comic Sans, cursive" font-size="11" fill="#868e96" text-anchor="middle">8</text><text x="42" y="588" font-family="Virgil, 'Segoe Print', 'Comic Sans MS', Comic Sans, cursive" font-size="14" fill="#1e1e1e" font-weight="bold">▸ Areas</text><g><path d="M248.8041064441204 575.0221641361713 L274.88501712679863 575.4617276966571 L277.05764533877374 594.7981479465961 L247.3995301425457 594.3195108234883" stroke="none" stroke-width="0" fill="#f8f9fa"></path><path d="M248.28915613293648 575.4556929767132 C254.63472932726143 576.3171552563906, 257.95196389853953 575.505030050397, 275.69804456830025 576.3093564212322 M247.71042104661464 575.3343411356211 C254.63262384086846 575.9762871410846, 259.1068377435207 576.1727656986714, 276.41995845735073 575.8146947771311 M275.31619100868704 575.5361803311109 C275.9423393206 582.0395888905227, 274.7072073892951 589.7922033825516, 275.47007255852225 594.0324724262953 M275.9579532274604 575.3202427402139 C276.8167412377596 582.9548590283097, 275.93672923099996 588.8008928579092, 276.3734347853065 594.1505215278268 M275.3275293171406 593.9676676928997 C270.10237724632026 594.6794881509542, 262.9930271774531 593.6126876519918, 247.4357951939106 594.4698052585125 M276.42249360978604 594.5890379816294 C268.20555233210325 594.739745311737, 261.37792685031894 594.356041984558, 248.528338393569 593.4225959688425 M249.05164118111134 594.8914534252882 C249.15865603524446 586.9947910912335, 249.18157952386142 581.921983127296, 249.18843899071217 576.4185206669569 M247.91139849036932 593.9165286174416 C247.96523713564872 589.8212335516513, 247.82280874705313 584.8065943086148, 247.84525590270758 575.6276795974373" stroke="#868e96" stroke-width="1" fill="none"></path></g><text x="262" y="589" font-family="Virgil, 'Segoe Print', 'Comic Sans MS', Comic Sans, cursive" font-size="11" fill="#868e96" text-anchor="middle">12</text><text x="314" y="82" font-family="Virgil, 'Segoe Print', 'Comic Sans MS', Comic Sans, cursive" font-size="17" fill="#1e1e1e" font-weight="bold">Projects / Games / StellarBurn</text><text x="896" y="82" font-family="Virgil, 'Segoe Print', 'Comic Sans MS', Comic Sans, cursive" font-size="14" fill="#868e96" text-anchor="end">6</text><text x="314" y="102" font-family="Virgil, 'Segoe Print', 'Comic Sans MS', Comic Sans, cursive" font-size="11" fill="#868e96">aggregates every task in this folder and below</text><g><path d="M311.60016882680355 111.74943863488734 C431.97116317469624 112.72380011439697, 551.2534639038146 112.6731293833293, 909.688967480883 111.74926970340312 M311.89186821151526 111.97043805252761 C520.7942528408021 113.10885491449014, 730.0789878195151 113.11131325441971, 909.9874759988859 111.85394222270698" stroke="#1e1e1e" stroke-width="1.2" fill="none"></path></g><g><path d="M313.5851057112217 127.43778638243676 L912.5864666044712 126.92946442961693 L912.9774820387363 198.0354918420315 L313.2267067015171 199.5591889321804" stroke="none" stroke-width="0" fill="#ffffff"></path><path d="M312.45945819616315 127.94658699274063 C431.78256772220135 129.54686721324921, 552.4493076193332 129.03481147289278, 911.4829825949669 128.4928416466713 M312.02562118649485 128.28029329180717 C480.465595394969 126.2093742620945, 649.3949458241462 126.15166006684304, 912.0568136990071 128.0540647685528 M910.5618037164211 128.82719536423684 C911.5535753694177 145.36207698211075, 912.7472980943322 162.66141782850028, 913.1462922036648 199.4709631025791 M912.6885300666094 127.2348453015089 C911.5546191266179 148.77652753069998, 912.6841295292974 171.0353453800082, 911.5300886183977 198.1076986759901 M912.3737909293175 198.3819490838051 C707.7350704795122 198.17650010108946, 503.8966991508007 199.2608261966705, 312.0599666953087 198.57234924554825 M912.1262099468709 198.12034540057184 C699.0598441749811 198.01101197361947, 486.5357452487945 197.91889592289925, 311.7878345882893 197.84341131091116 M311.01100224852564 198.88953858017922 C313.0121195229888 182.03858530893922, 313.0553173455596 169.44154439121485, 313.20641602873803 129.30812321305274 M312.06193189919 198.7147057980299 C312.4121548470855 181.99262210056185, 312.7027675446868 167.139822460711, 311.5555473357439 128.2254436939955" stroke="#1e1e1e" stroke-width="1.4" fill="none"></path></g><g><path d="M324.56607776492837 143.05979085594416 C328.9294423380494 141.70105465307833, 331.5398366352916 142.75690833464265, 340.8828293117881 143.05370932251216 M325.7072556145489 141.65576989099384 C330.5425270344317 142.08275769555567, 334.7424110336602 142.17125793302057, 342.26913595989345 141.78192001745106 M343.1298939022422 141.66855513244866 C341.32264291790125 145.68759307593106, 341.61605177906154 148.58931320935488, 341.523606813848 158.82451125770808 M341.88295656993984 141.31658756658436 C341.8195475901961 148.77332065448164, 341.56553351300954 155.063046143502, 341.6265930493176 157.7530836097896 M341.7812011894584 157.32261634498835 C335.9004152563214 158.3870903236568, 332.60054576605563 156.91344632455707, 324.9574125751853 159.26241676956414 M342.69130111053585 158.67590667650103 C337.5890884579718 157.47421409898996, 332.47032627537845 158.1924094658494, 326.5230657942593 157.94895469114184 M325.6815523609519 156.7740155091882 C324.7712387300432 152.86316972345114, 326.73659644374254 148.1389319089055, 325.5867368301749 143.1335293737054 M326.18502849414944 158.6304410879314 C326.49232898008825 153.2232748888433, 326.0774723125696 149.53885695025326, 325.8933247025311 142.11671587869526" stroke="#1e1e1e" stroke-width="1.4" fill="none"></path></g><text x="352" y="154" font-family="Virgil, 'Segoe Print', 'Comic Sans MS', Comic Sans, cursive" font-size="14" fill="#1e1e1e">Block out the boss-fight arena layout</text><g><path d="M435.1801409482956 165.78371517658235 L616.9152888059616 165.10595257282256 L614.2366427183151 184.5806557893753 L433.6356089353562 184.47891857624055" stroke="none" stroke-width="0" fill="#f8f9fa"></path><path d="M432.4648606538773 165.28862330913543 C470.40121102631093 166.38953941416742, 507.48299596905713 166.81602027964593, 614.409941983223 167.10947215557098 M432.8854039549828 166.13431097269057 C489.8085080713034 166.75051367640495, 545.6961995899677 167.09146635890008, 616.0560456633568 165.38021589517592 M616.2741644597054 164.5926344370842 C616.9858776204587 169.9061896675825, 616.4983448903562 172.2970959722996, 616.4955506443978 184.32515572309495 M616.1862360799313 165.32181436181068 C615.8874829602242 171.02711579978467, 615.8028954434395 175.19297998189927, 615.2761063420772 183.4092384111881 M614.179303097725 184.7398302793503 C569.7561567276716 183.0510704395771, 522.6675074279309 183.46549075818064, 434.33322231769563 185.37449748516082 M615.2206998229027 183.60115133523942 C565.8888953357936 184.31260062432287, 516.7646470010282 184.5388804552555, 433.6927819609642 184.27803770303726 M433.85320269823075 183.62744629621506 C432.9157014057636 177.59984599888327, 433.9275387928486 171.87694052577018, 434.56769923448564 167.0897478556633 M433.91431827902795 184.61764695763588 C434.24494740581514 179.06971128046513, 433.15368264293676 173.84491647243502, 433.7866568028927 166.03053243279456" stroke="#868e96" stroke-width="1" fill="none"></path></g><text x="524.6" y="179" font-family="Virgil, 'Segoe Print', 'Comic Sans MS', Comic Sans, cursive" font-size="11" fill="#868e96" text-anchor="middle">Games/StellarBurn/design</text><g><path d="M595.1801409482956 165.78371517658235 L706.9152888059616 165.10595257282256 L704.2366427183151 184.5806557893753 L593.6356089353561 184.47891857624055" stroke="none" stroke-width="0" fill="#f8f9fa"></path><path d="M592.4648606538773 165.28862330913543 C616.3760357379913 165.94854757022858, 639.4326453924178 166.3750284357071, 704.409941983223 167.10947215557098 M592.8854039549827 166.13431097269057 C628.2379137158395 166.49137961626053, 662.5550108790397 166.83233229875566, 706.0560456633568 165.38021589517592 M706.2741644597054 164.5926344370842 C706.9858776204587 169.9061896675825, 706.4983448903562 172.2970959722996, 706.4955506443978 184.32515572309495 M706.1862360799313 165.32181436181068 C705.8874829602242 171.02711579978467, 705.8028954434395 175.19297998189927, 705.2761063420772 183.4092384111881 M704.179303097725 184.7398302793503 C677.5220251083374 182.97226240253448, 648.1992441892625 183.38668272113802, 594.3332223176957 185.37449748516082 M705.2206998229027 183.60115133523942 C674.9993599534035 184.22483168458936, 644.9855762362481 184.451111515522, 593.6927819609642 184.27803770303726 M593.8532026982308 183.62744629621506 C592.9157014057637 177.59984599888327, 593.9275387928486 171.87694052577018, 594.5676992344856 167.0897478556633 M593.914318279028 184.61764695763588 C594.2449474058151 179.06971128046513, 593.1536826429367 173.84491647243502, 593.7866568028927 166.03053243279456" stroke="#e03131" stroke-width="1" fill="none"></path></g><text x="649.6" y="179" font-family="Virgil, 'Segoe Print', 'Comic Sans MS', Comic Sans, cursive" font-size="11" fill="#e03131" text-anchor="middle">due 2026-07-24</text><text x="858" y="156" font-family="Virgil, 'Segoe Print', 'Comic Sans MS', Comic Sans, cursive" font-size="20" fill="#e03131">⚑</text><text x="886" y="156" font-family="Virgil, 'Segoe Print', 'Comic Sans MS', Comic Sans, cursive" font-size="20" fill="#868e96">⋯</text><g><path d="M310.7048574730754 210.57508282214403 L911.8229077145457 208.77828883677722 L911.5804400727153 280.22275003939865 L312.36715181320903 281.1851754143834" stroke="none" stroke-width="0" fill="#ffffff"></path><path d="M312.09378249943256 209.6150301092863 C432.3229438509047 208.96998166680336, 552.9154627463222 208.8120583307743, 911.869032304883 209.97838900744915 M312.13804820626973 210.04496484667064 C493.7373553182185 209.2408638331294, 674.7248615878821 209.64085440129043, 912.1910939273238 209.97496584802866 M913.3911671116948 211.02764862030745 C911.134134958908 227.97144493181258, 912.8810863959045 247.39910812564193, 912.6587304070592 279.1754791542888 M912.1266722343862 209.39542605653406 C912.1645294453948 235.6761363228783, 910.9128650214523 261.8326011363417, 912.655590095371 279.5894936539233 M912.0706874448061 279.6736482352018 C698.0213216541707 280.73410843610765, 485.19097746998074 280.3645066332817, 312.00763280689716 279.80322173297407 M912.1443134459853 279.75435115724804 C713.8041749112308 281.9151955065131, 515.3753410029411 281.73621085494756, 311.76829849809405 280.17680149942635 M312.0345189526677 279.0643642231822 C312.5743215150386 258.33922839742155, 311.23157263465225 237.8322367977351, 312.07985629588364 208.74325859993695 M311.4362974308431 280.71328422799706 C312.8070240945369 252.80583246890455, 311.90248033709827 224.6921528350562, 312.70813979133965 210.21586775556207" stroke="#1e1e1e" stroke-width="1.4" fill="none"></path></g><g><path d="M326.62330744728445 224.31378786817194 C330.1392915143073 222.92535543383656, 332.57669144436716 224.77800702513753, 341.75144115909933 223.89619088426232 M325.96021640904246 224.5662808894366 C330.48056313492356 223.74245423406364, 336.20787404842673 223.4207901892066, 342.5712664736062 223.60394744627177 M342.7963209579885 223.84896306291222 C340.463366388157 227.41341583415866, 341.254681090191 231.40801768377423, 341.084801196903 238.75857570424677 M341.377284520939 223.46111024610698 C341.463141127199 228.76836809240282, 341.9460697060526 232.15137537412346, 342.63954437859354 239.28669908992947 M341.09921834930776 240.60893943563104 C337.83156404569746 238.80656304256618, 332.32683927699924 239.82158127205076, 324.8396613262594 239.53187986627222 M341.2920339835435 239.85241962902248 C337.1912182930857 240.54464572897552, 333.09418807931246 239.62738674393296, 326.47910959132014 240.69908261530102 M326.60271739467976 240.01135858789087 C327.15848499761523 233.81378643378616, 324.9964906786531 228.9306309361756, 324.572833070606 222.82515122190117 M325.6219574726373 240.62916167490184 C326.7091908226609 236.05217881582675, 326.6586933456063 232.76998347811403, 325.49065791256726 224.10809753410518" stroke="#1e1e1e" stroke-width="1.4" fill="none"></path></g><text x="352" y="236" font-family="Virgil, 'Segoe Print', 'Comic Sans MS', Comic Sans, cursive" font-size="14" fill="#1e1e1e">Balance the pulse-cannon cooldown</text><g><path d="M432.2998927101493 248.9210116162896 L616.1517299160362 246.95477697998285 L616.0396007522941 266.7679139867425 L432.7760540470481 266.10490505844353" stroke="none" stroke-width="0" fill="#f8f9fa"></path><path d="M434.75067141205074 246.45973110049962 C468.5462261641398 245.9690086568445, 505.4365334186703 247.2808205331415, 615.3750662580132 247.82334055751562 M433.1664715044201 247.54598985984921 C493.2461144221947 246.51689509736002, 554.3374020848424 246.40210968838633, 616.3917462341487 248.78246859386564 M615.9405915154517 246.77304236754776 C616.4146010907143 251.6670170384273, 616.4249742014855 255.1858096719533, 616.0567450274527 267.13922016963363 M615.6805640309304 247.4663370413333 C615.243076497227 254.35895474728198, 615.8954316364825 260.394892231673, 616.2890576713532 266.38285389132795 M616.6215443864465 264.96907815784215 C566.1281086867675 266.4810088200718, 517.21585127078 266.4606093926579, 434.2023875966668 265.45167870372535 M615.265958570689 266.2861657269299 C571.0025065274909 264.43430813212694, 525.3692050885409 264.44341646094625, 433.6439417354763 265.5115131743252 M434.77436773195865 266.86478937491773 C432.1349476733357 261.9768440738693, 434.77943302775924 256.6414022823423, 433.55379547491674 246.7813697038591 M433.3512472575158 266.6163675446063 C433.02180924838785 260.5310826714709, 433.73490367597344 255.78097792834043, 433.38399001292885 248.0219140882045" stroke="#868e96" stroke-width="1" fill="none"></path></g><text x="524.6" y="261" font-family="Virgil, 'Segoe Print', 'Comic Sans MS', Comic Sans, cursive" font-size="11" fill="#868e96" text-anchor="middle">Games/StellarBurn/combat</text><g><path d="M565.0998927101492 248.9210116162896 L622.9517299160361 246.95477697998285 L622.839600752294 266.7679139867425 L565.576054047048 266.10490505844353" stroke="none" stroke-width="0" fill="#f8f9fa"></path><path d="M567.5506714120507 246.45973110049962 C576.1003442011773 246.38750102126596, 587.7447694927454 247.69931289756298, 622.1750662580132 247.82334055751562 M565.96647150442 247.54598985984921 C584.5287062093615 247.4936232727468, 604.1025856591762 247.3788378637731, 623.1917462341487 248.78246859386564 M622.7405915154517 246.77304236754776 C623.2146010907143 251.6670170384273, 623.2249742014855 255.1858096719533, 622.8567450274527 267.13922016963363 M622.4805640309304 247.4663370413333 C622.0430764972269 254.35895474728198, 622.6954316364825 260.394892231673, 623.0890576713532 266.38285389132795 M623.4215443864465 264.96907815784215 C606.8814038105309 266.3499811725616, 591.9224415183068 266.3295817451477, 567.0023875966668 265.45167870372535 M622.065958570689 266.2861657269299 C609.1663282930851 265.1689492394626, 594.8968486197292 265.17805756828193, 566.4439417354762 265.5115131743252 M567.5743677319587 266.86478937491773 C564.9349476733357 261.9768440738693, 567.5794330277593 256.6414022823423, 566.3537954749166 246.7813697038591 M566.1512472575158 266.6163675446063 C565.8218092483878 260.5310826714709, 566.5349036759734 255.78097792834043, 566.1839900129288 248.0219140882045" stroke="#1971c2" stroke-width="1" fill="none"></path></g><text x="594.4" y="261" font-family="Virgil, 'Segoe Print', 'Comic Sans MS', Comic Sans, cursive" font-size="11" fill="#1971c2" text-anchor="middle">#today</text><text x="858" y="238" font-family="Virgil, 'Segoe Print', 'Comic Sans MS', Comic Sans, cursive" font-size="20" fill="#f08c00">⚑</text><text x="886" y="238" font-family="Virgil, 'Segoe Print', 'Comic Sans MS', Comic Sans, cursive" font-size="20" fill="#868e96">⋯</text><g><path d="M311.0246092349291 290.5123792618513 L911.0593488246202 290.6271132439375 L913.3833981066942 362.41000823676586 L311.507596924901 362.81116189658644" stroke="none" stroke-width="0" fill="#ffffff"></path><path d="M311.728106802702 292.563473225832 C431.58331997960806 292.2330961203575, 552.101617873311 292.42930518865586, 912.2550820147991 291.463936368227 M312.25047522604467 291.8096364015341 C506.36911524146797 292.27235340416433, 700.6947773516179 292.4900487357378, 911.6853741556406 291.8958669275045 M913.0205305069685 293.22810187637805 C910.7146945483983 310.5808128815144, 913.0148746974767 332.1367984227836, 912.1711686104536 362.07999520599844 M911.564814402163 291.5560068115592 C912.2944397641718 308.57574511505663, 911.8616005136072 326.2298568926752, 912.1810915723443 362.67128863185644 M911.7675839602947 362.2453473865986 C689.5875728288293 362.0117167711258, 466.4852557891607 362.74818706989294, 311.95529891848565 362.31409422039985 M912.1624169450998 362.0283569139242 C727.9085056474805 361.97937903940675, 544.2149367570877 362.3535257869959, 311.7487624078989 361.87019168794154 M313.0580356568098 362.4391898661852 C312.13652350708844 334.6398714859039, 312.60782792374494 309.42292920425535, 310.9532965630293 291.37839398682115 M312.4106629624963 362.7118626579642 C313.20189334198835 337.61904283724726, 312.7021931295097 311.84448320940135, 312.2607322469354 292.20629181712866" stroke="#1e1e1e" stroke-width="1.4" fill="none"></path></g><g><path d="M325.8005371296406 305.5677848803997 C328.4691406905651 307.3176562145948, 333.6135462534428 307.08710571563245, 342.6200530064106 304.7386724460125 M326.213177203536 306.03679188787936 C331.85859923541545 305.69015077257154, 336.2333370631933 306.3983224453926, 341.433396987319 305.4259748750925 M342.4627480137348 306.0293709933758 C342.77208985841276 309.1392385923862, 341.18131040132045 314.2267221581936, 340.64599557995797 321.57264015078545 M342.31161247193813 305.6056329256296 C342.2587346642017 310.523415530324, 342.0386058990955 317.0797046047449, 342.21249570786955 322.26031457006934 M343.2972355091572 321.0152625262737 C336.8827128350735 322.10603576147554, 332.0531327879429 322.7297162195444, 324.72191007733346 322.6813429629803 M341.3327668565512 322.4689325815439 C338.23334812819957 321.8870773589611, 333.71804988324647 322.2143640220165, 326.435153388381 322.0092105394602 M324.64388242840766 323.24870166659355 C326.6657312651872 317.96440314412115, 326.1363849135637 313.2423299634456, 326.43892931103704 305.39677307009697 M326.49888645112514 322.6278822618723 C325.4860526652336 315.68108274281025, 325.79991437864305 309.60111000597476, 326.5279911226034 306.09947918951514" stroke="#1e1e1e" stroke-width="1.4" fill="none"></path></g><text x="352" y="318" font-family="Virgil, 'Segoe Print', 'Comic Sans MS', Comic Sans, cursive" font-size="14" fill="#1e1e1e">Write the pause-menu copy</text><g><path d="M419.019644472003 328.8583080559969 L573.7881710261106 328.80360138714315 L573.042558786273 348.9551721841097 L421.51649915874003 347.73089154064655" stroke="none" stroke-width="0" fill="#f8f9fa"></path><path d="M420.2364821702242 330.83083889186383 C450.68091943375765 331.57487124350666, 481.76942713186145 330.5720141306221, 574.7401905328036 328.53720895946026 M419.8475390538573 330.5576687470078 C473.2597770873457 329.28503155365587, 528.1307172082364 328.71450805321336, 573.5274468049407 330.58472129255534 M574.0070185711979 328.9534502980113 C573.9553245609701 333.4278444092721, 574.463603512615 338.07452337160703, 574.0179394105077 347.0732846161723 M573.5748919819296 329.61085972085596 C574.7266700342298 334.0907936947793, 574.6759678295255 336.95680448144674, 574.2620090006292 347.9164693714678 M574.263785675168 348.398326036334 C528.8840666819364 346.684235905379, 486.13220718577503 349.4290167319476, 420.471552875638 348.72885992228987 M573.7112173184753 347.3711801186204 C539.2114082124084 348.98163037464025, 504.96434416249394 348.77356720134617, 419.99510150998833 348.34498864561317 M419.21553276568653 347.2221324536204 C420.92219394090773 342.7538421488553, 419.4393272626698 337.08586403891445, 418.93989171534776 329.3529915520549 M420.62817623600364 348.6150881315768 C419.63867109096054 343.4324540624767, 420.71612470901016 339.1570393842459, 419.381323222965 330.01329574361444" stroke="#868e96" stroke-width="1" fill="none"></path></g><text x="497" y="343" font-family="Virgil, 'Segoe Print', 'Comic Sans MS', Comic Sans, cursive" font-size="11" fill="#868e96" text-anchor="middle">Games/StellarBurn/ui</text><g><path d="M537.4196444720029 328.8583080559969 L594.1881710261106 328.80360138714315 L593.442558786273 348.9551721841097 L539.9164991587401 347.73089154064655" stroke="none" stroke-width="0" fill="#f8f9fa"></path><path d="M538.6364821702242 330.83083889186383 C549.4447928950191 331.2752479474545, 560.8971740543842 330.27239083456993, 595.1401905328036 328.53720895946026 M538.2475390538573 330.5576687470078 C557.2759741872549 329.59917417734863, 577.7631114080548 329.0286506769061, 593.9274468049407 330.58472129255534 M594.4070185711979 328.9534502980113 C594.3553245609701 333.4278444092721, 594.863603512615 338.07452337160703, 594.4179394105076 347.0732846161723 M593.9748919819295 329.61085972085596 C595.1266700342297 334.0907936947793, 595.0759678295254 336.95680448144674, 594.6620090006292 347.9164693714678 M594.663785675168 348.398326036334 C577.2280878081917 346.5907463722229, 562.4202494382859 349.3355271987915, 538.871552875638 348.72885992228987 M594.1112173184753 347.3711801186204 C581.6449249386787 348.67928194612267, 569.4313776150346 348.4712187728286, 538.3951015099883 348.34498864561317 M537.6155327656865 347.2221324536204 C539.3221939409077 342.7538421488553, 537.8393272626698 337.08586403891445, 537.3398917153478 329.3529915520549 M539.0281762360036 348.6150881315768 C538.0386710909604 343.4324540624767, 539.11612470901 339.1570393842459, 537.7813232229649 330.01329574361444" stroke="#1971c2" stroke-width="1" fill="none"></path></g><text x="566.4" y="343" font-family="Virgil, 'Segoe Print', 'Comic Sans MS', Comic Sans, cursive" font-size="11" fill="#1971c2" text-anchor="middle">▤ note</text><text x="858" y="320" font-family="Virgil, 'Segoe Print', 'Comic Sans MS', Comic Sans, cursive" font-size="20" fill="#868e96">⚑</text><text x="886" y="320" font-family="Virgil, 'Segoe Print', 'Comic Sans MS', Comic Sans, cursive" font-size="20" fill="#868e96">⋯</text><text x="314" y="396" font-family="Virgil, 'Segoe Print', 'Comic Sans MS', Comic Sans, cursive" font-size="12" fill="#868e96">Folder nodes roll up their children. Selecting a folder shows every task beneath it.</text></svg>