<svg xmlns="http://www.w3.org/2000/svg" width="900" height="420" viewBox="0 0 900 420"><rect width="900" height="420" fill="#ffffff"></rect><text x="450" y="40" font-family="Virgil, 'Segoe Print', 'Comic Sans MS', Comic Sans, cursive" font-size="20" fill="#1e1e1e" text-anchor="middle" font-weight="bold">One task, many places</text><g><path d="M58.919441464170816 90.75891698934137 L420.08199249766767 91.45985491611063 L418.65665557645264 218.6213309440762 L59.86600150130689 220.95846958495676" stroke="none" stroke-width="0" fill="#f8f9fa"></path><path d="M59.837292491551445 89.9588316797142 C132.7786595066756 91.4062081354785, 204.50789517272366 90.38788093814219, 420.23528450584087 89.3073142457863 M59.83053392425411 89.73166247039957 C147.30434318899282 90.63780823823092, 234.27524675522878 89.98842999399461, 419.90838016126776 90.28818855572041 M420.9660676393658 88.65101982615889 C420.26759955720973 120.96506428346038, 421.51236415939405 149.9477759618312, 420.70298595763745 220.23516111634672 M419.63581987749785 89.46130669880658 C419.1022754669376 133.1346846481785, 419.1446321070381 176.71495518330485, 419.8323783231899 219.73403870034963 M420.060189337731 220.89661121195186 C336.7505026510815 222.9276479545803, 252.6523956219477 222.30807612480837, 60.953489256431745 220.67993241665465 M419.4945314955388 220.40611515412624 C293.8127294910345 218.14863203713682, 167.02320737418455 218.97910057539028, 60.50036528016369 219.47774158144765 M60.50291258431971 221.29335769675671 C59.94116105793044 170.47849188745022, 60.42278097627684 121.38314779140055, 59.26524060107768 89.62905462048948 M59.492322446219625 220.89680146742612 C59.234017247166484 177.14368085991592, 60.144915223326535 134.12065840456634, 59.8933330250904 90.87845413852483" stroke="#1e1e1e" stroke-width="1.4" fill="none"></path></g><text x="80" y="120" font-family="Virgil, 'Segoe Print', 'Comic Sans MS', Comic Sans, cursive" font-size="13" fill="#868e96">Projects/Website Redesign.md</text><g><path d="M79.72675618827343 140.64796414673327 C84.27797432690859 138.56360936909914, 85.40182613253593 140.44518428593875, 96.8233421677351 139.5497787410021 M80.15552953392267 140.36613198131323 C86.23154239714145 139.37235846209524, 93.29577455967664 140.2103870742321, 96.74556616455317 140.74432914584875 M97.7571246689558 140.24489516556264 C97.78468164306878 144.82976239591838, 96.0795517335534 152.62423228740693, 96.49433259665966 156.16877335846425 M96.65193541198968 140.7742721542716 C96.33112244403362 143.69757302522657, 95.57443431651592 147.13395830780266, 95.67541595131159 155.20338576167822 M97.41620591819286 154.1558770877123 C91.76606434434652 154.50567262691257, 85.90007987499237 157.48961936992404, 80.5069850128889 156.3535571604967 M95.52879447609186 156.67815543025733 C89.10936200380326 156.17317955982685, 82.93394961208105 155.74772733700274, 80.43252556473017 156.36153508991003 M81.45398040473461 157.40811694443227 C79.27095521086454 148.21424777239562, 79.66273081892729 145.35408282399177, 81.27315488517284 141.09946217834948 M79.96314774185419 156.94464704364538 C79.14634211087227 151.7276279872656, 79.67865239644051 147.1350800612569, 79.96799852043391 140.85657986491918" stroke="#1e1e1e" stroke-width="1.4" fill="none"></path></g><text x="106" y="153" font-family="Virgil, 'Segoe Print', 'Comic Sans MS', Comic Sans, cursive" font-size="14" fill="#1e1e1e">Ask [[People/Alex]] to review</text><text x="106" y="178" font-family="Virgil, 'Segoe Print', 'Comic Sans MS', Comic Sans, cursive" font-size="14" fill="#e03131">the mockups   due 2026-06-30  ⚑</text><g><path d="M559.9958109812811 69.39187742006034 L839.7149437325075 69.24891187082976 L839.8249168233946 133.35998208057134 L561.6950112598017 131.08852188717574" stroke="none" stroke-width="0" fill="#ffffff"></path><path d="M560.5926483384626 68.93625792782834 C615.4694556680331 72.85370264884294, 671.7604961040507 70.50778480274411, 840.0662921344543 71.30061024408504 M560.1863025102987 69.97859662630337 C650.0862600568463 69.22270388122047, 738.8700753556361 68.84661031078683, 839.5131494198928 69.51166764544067 M839.1455072952434 71.58264869619161 C839.9186025917921 84.88562969118357, 838.4543371081743 102.00361484419554, 840.7723946822807 131.0637083726004 M840.4186490812339 70.00980024104938 C840.0702593796718 83.19646497750655, 841.2879341804254 98.38482410712167, 840.0928374239244 131.3552902526222 M839.8565035360378 132.55086808086386 C773.8005500939527 134.38276896582082, 707.4860472159564 134.27729354643782, 559.6873407506735 133.34346775929936 M839.8955400456349 131.8923788398409 C773.6376394963893 131.42357738808275, 706.2921066883384 131.3739234543583, 560.0581268026392 132.4330681968402 M561.0718443823978 131.8001827256754 C558.5259520400223 114.23419318385422, 560.3381014276204 93.36461649145932, 560.7893045080825 71.71790965367109 M559.3424183466472 132.87601100569591 C560.757857110342 116.26919979797675, 560.3895919315424 100.63812473146244, 560.549997688178 70.73840603893623" stroke="#1971c2" stroke-width="1.4" fill="none"></path></g><text x="578" y="98" font-family="Virgil, 'Segoe Print', 'Comic Sans MS', Comic Sans, cursive" font-size="14" fill="#1971c2">Projects ▸ Website Redesign</text><g><path d="M577.7956749176979 109.02395219564438 C581.0372991025448 108.40481249213218, 583.5491015100479 106.75357904791832, 590.9377895569801 108.19970498800278 M578.447372711897 107.44817597508431 C582.122056529522 108.02714461612702, 586.4743660795688 108.66451609897614, 589.7940882194042 107.31243886113167 M588.982832891941 106.56652688741684 C589.6435755240917 112.57301652789117, 588.9700689780713 114.53897638320923, 590.1791101288795 120.06503114461898 M589.8292472159862 108.15236287236213 C590.6334965920448 110.98343070030214, 589.4645790886879 114.65861107707023, 589.6472212684155 120.45784768223763 M589.1682745575905 118.98116945028305 C585.9014191257953 119.33556350255013, 583.3067731666565 118.83415915989876, 577.5559800171852 119.67140954732895 M589.9317259681225 120.50420724034309 C587.1324826717376 119.55890607976913, 584.6585994827748 120.751636449337, 578.0167007529735 119.7620467865467 M576.8986405396462 121.07748925924301 C576.5959402811528 116.44566369652749, 576.7983077585698 111.2987770986557, 577.6175398468971 107.06594957113266 M578.3508636558056 120.69952939152718 C578.301789481163 117.74350398302079, 578.3715365285874 115.14010674834252, 578.0373313605785 108.58210648655891" stroke="#1971c2" stroke-width="1.4" fill="none"></path></g><text x="600" y="119" font-family="Virgil, 'Segoe Print', 'Comic Sans MS', Comic Sans, cursive" font-size="12" fill="#868e96">the same task</text><g><path d="M417.8027856422588 155.26573747564106 C435.42029518336057 155.27230159242637, 448.2743600146845 154.43623452981004, 489.26796343456954 155.2629501061514 M420.41582549000157 154.5122278667055 C436.5386347598396 154.715613610344, 454.5702247952111 154.7561762191821, 489.7933539816178 154.79004667466506 M490.29786803852767 154.188087769039 C512.3273164052349 136.615070230782, 538.6248951453548 116.44622603290529, 555.3216531230137 102.9179009931162 M490.27635509455575 154.13676930135117 C503.75210272308993 142.4584770160951, 520.5195740395468 130.3973278110139, 554.5988551476039 100.33682998782024" stroke="#1971c2" stroke-width="1.4" fill="none"></path></g><text x="546" y="106" font-family="Virgil, 'Segoe Print', 'Comic Sans MS', Comic Sans, cursive" font-size="12" fill="#1971c2">▶</text><g><path d="M559.9958109812811 174.39187742006033 L839.7149437325075 174.24891187082977 L839.8249168233946 238.35998208057134 L561.6950112598017 236.08852188717574" stroke="none" stroke-width="0" fill="#ffffff"></path><path d="M560.5926483384626 173.93625792782834 C615.4694556680331 177.85370264884295, 671.7604961040507 175.5077848027441, 840.0662921344543 176.30061024408505 M560.1863025102987 174.97859662630339 C650.0862600568463 174.22270388122047, 738.8700753556361 173.84661031078682, 839.5131494198928 174.51166764544067 M839.1455072952434 176.5826486961916 C839.9186025917921 189.88562969118357, 838.4543371081743 207.00361484419554, 840.7723946822807 236.0637083726004 M840.4186490812339 175.0098002410494 C840.0702593796718 188.19646497750657, 841.2879341804254 203.3848241071217, 840.0928374239244 236.3552902526222 M839.8565035360378 237.55086808086386 C773.8005500939527 239.38276896582082, 707.4860472159564 239.27729354643782, 559.6873407506735 238.34346775929936 M839.8955400456349 236.8923788398409 C773.6376394963893 236.42357738808275, 706.2921066883384 236.3739234543583, 560.0581268026392 237.4330681968402 M561.0718443823978 236.8001827256754 C558.5259520400223 219.23419318385422, 560.3381014276204 198.36461649145932, 560.7893045080825 176.7179096536711 M559.3424183466472 237.87601100569591 C560.757857110342 221.26919979797677, 560.3895919315424 205.63812473146243, 560.549997688178 175.73840603893623" stroke="#2f9e44" stroke-width="1.4" fill="none"></path></g><text x="578" y="203" font-family="Virgil, 'Segoe Print', 'Comic Sans MS', Comic Sans, cursive" font-size="14" fill="#2f9e44">People ▸ Alex</text><g><path d="M577.7956749176979 214.02395219564437 C581.0372991025448 213.40481249213218, 583.5491015100479 211.75357904791832, 590.9377895569801 213.19970498800276 M578.447372711897 212.4481759750843 C582.122056529522 213.02714461612703, 586.4743660795688 213.66451609897615, 589.7940882194042 212.31243886113168 M588.982832891941 211.56652688741684 C589.6435755240917 217.57301652789116, 588.9700689780713 219.53897638320925, 590.1791101288795 225.06503114461898 M589.8292472159862 213.15236287236215 C590.6334965920448 215.98343070030214, 589.4645790886879 219.65861107707025, 589.6472212684155 225.45784768223763 M589.1682745575905 223.98116945028306 C585.9014191257953 224.33556350255014, 583.3067731666565 223.83415915989877, 577.5559800171852 224.67140954732895 M589.9317259681225 225.5042072403431 C587.1324826717376 224.55890607976912, 584.6585994827748 225.751636449337, 578.0167007529735 224.7620467865467 M576.8986405396462 226.077489259243 C576.5959402811528 221.44566369652748, 576.7983077585698 216.2987770986557, 577.6175398468971 212.06594957113265 M578.3508636558056 225.69952939152716 C578.301789481163 222.7435039830208, 578.3715365285874 220.14010674834253, 578.0373313605785 213.58210648655893" stroke="#2f9e44" stroke-width="1.4" fill="none"></path></g><text x="600" y="224" font-family="Virgil, 'Segoe Print', 'Comic Sans MS', Comic Sans, cursive" font-size="12" fill="#868e96">the same task</text><g><path d="M417.8027856422588 155.26573747564106 C435.42029518336057 155.27230159242637, 448.2743600146845 154.43623452981004, 489.26796343456954 155.2629501061514 M420.41582549000157 154.5122278667055 C436.5386347598396 154.715613610344, 454.5702247952111 154.7561762191821, 489.7933539816178 154.79004667466506 M490.29786803852767 154.188087769039 C512.6782547044726 175.2076556412391, 538.9758334445926 193.6313968538195, 555.3216531230137 207.9179009931162 M490.27635509455575 154.13676930135117 C504.4574251223644 167.27111632379146, 521.2248964388212 180.02260642640664, 554.5988551476039 205.33682998782024" stroke="#2f9e44" stroke-width="1.4" fill="none"></path></g><text x="546" y="211" font-family="Virgil, 'Segoe Print', 'Comic Sans MS', Comic Sans, cursive" font-size="12" fill="#2f9e44">▶</text><g><path d="M559.9958109812811 279.3918774200603 L839.7149437325075 279.2489118708298 L839.8249168233946 343.35998208057134 L561.6950112598017 341.0885218871757" stroke="none" stroke-width="0" fill="#ffffff"></path><path d="M560.5926483384626 278.93625792782836 C615.4694556680331 282.85370264884295, 671.7604961040507 280.5077848027441, 840.0662921344543 281.300610244085 M560.1863025102987 279.9785966263034 C650.0862600568463 279.2227038812205, 738.8700753556361 278.84661031078684, 839.5131494198928 279.5116676454407 M839.1455072952434 281.5826486961916 C839.9186025917921 294.88562969118357, 838.4543371081743 312.00361484419557, 840.7723946822807 341.0637083726004 M840.4186490812339 280.0098002410494 C840.0702593796718 293.19646497750654, 841.2879341804254 308.3848241071217, 840.0928374239244 341.35529025262224 M839.8565035360378 342.55086808086384 C773.8005500939527 344.38276896582084, 707.4860472159564 344.2772935464378, 559.6873407506735 343.34346775929936 M839.8955400456349 341.8923788398409 C773.6376394963893 341.4235773880828, 706.2921066883384 341.37392345435836, 560.0581268026392 342.4330681968402 M561.0718443823978 341.8001827256754 C558.5259520400223 324.23419318385425, 560.3381014276204 303.3646164914593, 560.7893045080825 281.7179096536711 M559.3424183466472 342.8760110056959 C560.757857110342 326.26919979797674, 560.3895919315424 310.6381247314625, 560.549997688178 280.7384060389362" stroke="#f08c00" stroke-width="1.4" fill="none"></path></g><text x="578" y="308" font-family="Virgil, 'Segoe Print', 'Comic Sans MS', Comic Sans, cursive" font-size="14" fill="#f08c00">◷ Today / date lists</text><g><path d="M577.7956749176979 319.02395219564437 C581.0372991025448 318.4048124921322, 583.5491015100479 316.7535790479183, 590.9377895569801 318.1997049880028 M578.447372711897 317.4481759750843 C582.122056529522 318.027144616127, 586.4743660795688 318.6645160989761, 589.7940882194042 317.3124388611317 M588.982832891941 316.56652688741684 C589.6435755240917 322.5730165278911, 588.9700689780713 324.5389763832092, 590.1791101288795 330.065031144619 M589.8292472159862 318.1523628723621 C590.6334965920448 320.9834307003021, 589.4645790886879 324.65861107707025, 589.6472212684155 330.4578476822376 M589.1682745575905 328.98116945028306 C585.9014191257953 329.3355635025501, 583.3067731666565 328.8341591598987, 577.5559800171852 329.67140954732895 M589.9317259681225 330.5042072403431 C587.1324826717376 329.55890607976914, 584.6585994827748 330.751636449337, 578.0167007529735 329.7620467865467 M576.8986405396462 331.077489259243 C576.5959402811528 326.44566369652745, 576.7983077585698 321.2987770986557, 577.6175398468971 317.06594957113265 M578.3508636558056 330.69952939152716 C578.301789481163 327.7435039830208, 578.3715365285874 325.14010674834253, 578.0373313605785 318.5821064865589" stroke="#f08c00" stroke-width="1.4" fill="none"></path></g><text x="600" y="329" font-family="Virgil, 'Segoe Print', 'Comic Sans MS', Comic Sans, cursive" font-size="12" fill="#868e96">the same task</text><g><path d="M417.8027856422588 155.26573747564106 C435.42029518336057 155.27230159242637, 448.2743600146845 154.43623452981004, 489.26796343456954 155.2629501061514 M420.41582549000157 154.5122278667055 C436.5386347598396 154.715613610344, 454.5702247952111 154.7561762191821, 489.7933539816178 154.79004667466506 M490.29786803852767 154.188087769039 C513.0291930037104 213.80024105169622, 539.3267717438304 270.81656767473373, 555.3216531230137 312.9179009931162 M490.27635509455575 154.13676930135117 C505.16274752163883 192.08375563148783, 521.9302188380957 229.6478850417994, 554.5988551476039 310.33682998782024" stroke="#f08c00" stroke-width="1.4" fill="none"></path></g><text x="546" y="316" font-family="Virgil, 'Segoe Print', 'Comic Sans MS', Comic Sans, cursive" font-size="12" fill="#f08c00">▶</text><text x="60" y="260" font-family="Virgil, 'Segoe Print', 'Comic Sans MS', Comic Sans, cursive" font-size="14" fill="#1e1e1e" font-weight="bold">Authored once.</text><text x="60" y="284" font-family="Virgil, 'Segoe Print', 'Comic Sans MS', Comic Sans, cursive" font-size="13" fill="#868e96">Taskgregator indexes it by its</text><text x="60" y="304" font-family="Virgil, 'Segoe Print', 'Comic Sans MS', Comic Sans, cursive" font-size="13" fill="#868e96">location, its [[links]], its #tags,</text><text x="60" y="324" font-family="Virgil, 'Segoe Print', 'Comic Sans MS', Comic Sans, cursive" font-size="13" fill="#868e96">and its dates. No duplication,</text><text x="60" y="344" font-family="Virgil, 'Segoe Print', 'Comic Sans MS', Comic Sans, cursive" font-size="13" fill="#868e96">no moving your notes.</text></svg>