<svg xmlns="http://www.w3.org/2000/svg" width="920" height="580" viewBox="0 0 920 580"><rect width="920" height="580" fill="#ffffff"></rect><g><path d="M11.281823329478502 11.453937256783247 C191.5745001216233 13.162628782528639, 370.1892858310044 14.055384886997938, 908.2408487935364 11.452112796753646 M11.912176684364676 12.04073096729815 C277.7189165177197 14.502757157483696, 544.0550401248785 14.529307228723168, 908.224740787968 12.222576005235315 M907.4749681706727 12.188566539734602 C907.2701825588495 198.91535992145538, 907.6462052171976 385.01895796015856, 908.1450820441544 568.5353533773124 M907.820886970982 11.794976269975304 C908.1425570937514 163.89268839858474, 908.4983528705955 315.20829824753105, 908.0319779147953 567.9259250829368 M907.3583603568375 568.3727849034965 C677.0734411616623 570.4518830586136, 444.97079689934844 569.4337898588836, 11.68722377255559 568.3787250308692 M907.7753903331608 568.3467720029503 C559.809032184109 567.4073131000191, 212.2697091760486 567.622771710077, 12.156919738277793 568.2726864073426 M11.90446570828557 567.3442046527565 C12.661913068422676 431.87969532102346, 12.387520382532477 295.0191683806479, 11.588021049052477 11.764058812111616 M12.055508548244834 568.3331323263794 C10.470629181700945 413.16255843572316, 10.20217218144536 258.36480902321637, 11.823997410759329 12.179014763608574" stroke="#1e1e1e" stroke-width="1.8" fill="none"></path></g><g><path d="M28.495020433385783 25.090935384108775 C29.51353563015944 25.228481661051525, 31.106565010557755 26.75716804607262, 31.77459705853162 27.594959447976233 C32.442629106505485 28.432750849879845, 32.49818086028175 29.135092136803138, 32.50321272122897 30.117683795530457 C32.50824458217619 31.100275454257776, 32.54820403890096 32.850180396831696, 31.804788224214928 33.49050940034014 C31.061372409528893 34.13083840384858, 29.107963967482167 33.95325462328541, 28.04271783311275 33.95965781658109 C26.977471698743333 33.966061009876775, 26.20304102254752 33.97976696925809, 25.41331141799842 33.52892856011422 C24.623581813449317 33.07809015097035, 23.525195145254912 32.21238004449864, 23.304340205818146 31.25462736171788 C23.08348526638138 30.296874678937122, 23.61435726808751 28.703767249609868, 24.088181781377813 27.78241246342967 C24.562006294668116 26.86105767724947, 25.240693584103248 26.1504900432208, 26.147287285559976 25.726498644636692 C27.053880987016704 25.302507246052585, 29.09508635598482 25.240701694829486, 29.52774399011817 25.238464071925016 C29.960401624251524 25.236226449020545, 28.84476761099148 25.666106575567504, 28.743233090360082 25.713072907209867 M28.590373439060205 25.567960965240427 C29.353270880624084 25.708490291632433, 29.946117738072843 25.890603057247226, 30.707414245182896 26.533323230498297 C31.46871075229295 27.176043403749368, 33.195034184171405 28.446254467576605, 33.15815248172051 29.424282004746853 C33.12127077926962 30.402309541917102, 31.092134740638617 31.43478341561501, 30.48612403047754 32.40148845351978 C29.880113320316465 33.368193491424556, 30.397734530092695 35.03417144695057, 29.52208822075406 35.224512232175485 C28.646441911415426 35.4148530174004, 26.150929839461405 34.19311287294123, 25.23224617444574 33.54353316486926 C24.313562509430078 32.89395345679729, 24.284345095055198 32.15382857208925, 24.009986230660086 31.32703398374369 C23.735627366264975 30.500239395398125, 23.37073800123266 29.511588941978257, 23.58609298807508 28.582765634795887 C23.8014479749175 27.653942327613517, 24.30184301587244 26.371666104283978, 25.30211615171462 25.75409414064947 C26.302389287556803 25.136522177014964, 28.909792359983925 24.99408353448667, 29.58773180312817 24.877333852988837 C30.26567124627242 24.760584171491004, 29.597469263326936 24.839587089225162, 29.369752810580103 25.053596051662467" stroke="none" stroke-width="0" fill="#e03131"></path><path d="M27.01116239108432 25.371319973115284 C27.716281095254345 25.237937466767946, 28.827631941730143 26.197725352213563, 29.740070831196967 26.69068181895159 C30.65250972066379 27.183638285689614, 32.13974183302161 27.590719887463006, 32.485795727885254 28.329058773543444 C32.8318496227489 29.067397659623882, 32.10268525298603 30.273461150190148, 31.816394200378816 31.120715135434214 C31.530103147771605 31.96796912067828, 31.561590231952298 32.81826576518123, 30.76804941224199 33.41258268500784 C29.97450859253168 34.00689960483445, 28.12495856551988 34.804091003360064, 27.05514928211697 34.68661665439389 C25.985339998714064 34.56914230542771, 24.854787760856208 33.47579108892192, 24.34919371182455 32.70773659121077 C23.843599662792894 31.939682093499613, 24.055756375454237 31.020835693808795, 24.021584987927028 30.07828966812696 C23.98741360039982 29.135743642445124, 23.621924883878492 27.840171327624585, 24.144165386661292 27.05246043711975 C24.666405889444093 26.26474954661491, 26.56156748148389 25.658150407541868, 27.155028004623823 25.352024325097936 C27.748488527763755 25.045898242654005, 27.718246937136396 25.146291866486294, 27.704928525500883 25.215703942456155 M27.754223389322416 25.35410581579891 C28.67762083921552 25.263471638356297, 30.1284382995268 25.619829507904555, 30.855579235745456 26.43479671009851 C31.582720171964112 27.249763912292465, 32.14811131704532 29.242804434845475, 32.11706900663437 30.24390902896265 C32.08602669622341 31.245013623079828, 31.236476717525022 31.82169288208594, 30.669325373279747 32.44142427480158 C30.102174029034472 33.06115566751721, 29.53004912848009 33.57668815078758, 28.714160941162724 33.96229738525648 C27.898272753845358 34.34790661972537, 26.430854554227825 35.097577276168316, 25.773996249375557 34.75507968161494 C25.11713794452329 34.41258208706156, 25.23290667228439 32.769053655827065, 24.77301111204912 31.907311817936186 C24.313115551813848 31.045569980045308, 22.791896000581918 30.605889347184927, 23.014622887963927 29.58462865426966 C23.237349775345937 28.563367961354395, 25.04990829102358 26.47257532138442, 26.109372436341182 25.7797476604446 C27.168836581658784 25.08691999950478, 28.847435057339826 25.35425349938812, 29.371407759869538 25.42766268863074 C29.89538046239925 25.50107187787336, 29.48766620084046 26.253081320927397, 29.253208651519447 26.220202795900327" stroke="#1e1e1e" stroke-width="1" fill="none"></path></g><g><path d="M43.840789263725206 25.674607458387328 C44.66276823867715 25.552468143138945, 45.87036717989341 25.564000176896943, 46.53326444662183 26.12641645559256 C47.19616171335025 26.68883273428818, 47.57564554526484 28.054304595345343, 47.818172864095715 29.049105130561035 C48.06070018292659 30.043905665776727, 48.42705882541559 31.27875622938337, 47.98842835960706 32.095219666886706 C47.549797893798534 32.91168310439004, 46.213892842107704 33.64490254283105, 45.186390069244545 33.947885755581055 C44.15888729638139 34.25086896833106, 42.71332478453705 34.13016349799972, 41.82341172242811 33.91311894338677 C40.933498660319174 33.69607438877382, 40.29184680217803 33.435688765047, 39.8469116965909 32.64561842790336 C39.40197659100377 31.85554809075972, 38.94629603193491 30.29828949258463, 39.15380108890534 29.172696920524928 C39.36130614587577 28.047104348465226, 40.256304308408936 26.513384684446912, 41.091942038413485 25.892062995545146 C41.927579768418035 25.27074130664338, 43.50168638086451 25.397258900373306, 44.16762746893264 25.44476678711432 C44.833568557000774 25.492274673855338, 44.97197999452231 26.15316554414118, 45.087588566822255 26.17711031599125 M43.91156576181774 25.71503413161049 C44.65940630848582 25.78577473357975, 46.25588540607001 25.742689887219107, 46.944631355829635 26.55647099591835 C47.63337730558926 27.37025210461759, 47.90037986871605 29.64208038444581, 48.04404146037553 30.59772078380595 C48.18770305203501 31.553361183166093, 48.397773359706534 31.798686309900205, 47.80660090578652 32.2903133920792 C47.2154284518665 32.78194047425819, 45.56992034895895 33.22156155818242, 44.49700673685545 33.54748327687991 C43.42409312475194 33.873404995577395, 42.018728250908275 34.416957118623394, 41.36911923316547 34.245843704264125 C40.719510215422666 34.074730289904856, 40.775124951888046 33.40021165949007, 40.59935263039863 32.520802790724304 C40.42358030890921 31.64139392195854, 40.03706563194616 29.954459919923032, 40.31448530422894 28.96939049166953 C40.591904976511714 27.984321063416026, 41.665703665745866 27.29847478636794, 42.2638706640953 26.610386221203278 C42.862037662444735 25.922297656038616, 43.52620703670057 24.885793723350595, 43.90348729432552 24.840859100681563 C44.280767551950476 24.79592447801253, 44.345846528697635 26.18288191249155, 44.527552209845034 26.34077848518908" stroke="none" stroke-width="0" fill="#f08c00"></path><path d="M44.72460442849746 25.13909649117549 C45.60415797223511 25.364591070366405, 47.436585097164254 26.23043131134913, 48.13490177670671 27.17477089553728 C48.83321845624917 28.11911047972543, 49.1283483141378 29.802365313326664, 48.91450450575223 30.805133996304388 C48.70066069736665 31.807902679282112, 47.57941398025541 32.525754176624105, 46.85183892639327 33.19138299340362 C46.12426387253113 33.85701181018314, 45.42302765449862 34.68648912110325, 44.54905418257938 34.79890689698151 C43.67508071066015 34.91132467285976, 42.43085812715473 34.42469108727021, 41.60799809487786 33.86588964867314 C40.785138062600986 33.30708821007607, 39.82068842885992 32.38861286539807, 39.611893988918155 31.44609826539907 C39.40309954897639 30.503583665400065, 39.997026456622955 29.14209793934531, 40.3552314552273 28.21080204867911 C40.71343645383164 27.27950615801291, 40.96444472214746 26.26271461557848, 41.76112398054421 25.85832292140188 C42.55780323894096 25.453931227225276, 44.53067344169373 25.87329588005518, 45.13530700560779 25.784451883619482 C45.739940569521856 25.695607887183783, 45.280410555134495 25.24850654511078, 45.38892536402859 25.325258942787677 M45.464540581579335 26.325731284155236 C46.49385500253767 26.576798065993493, 47.03959647230007 27.37414125032853, 47.59183438374217 27.90734356985311 C48.144072295184266 28.44054588937769, 48.83846945180439 28.80707217420401, 48.77796805023193 29.524945201302724 C48.71746664865946 30.24281822840144, 48.03668412346437 31.529172029398858, 47.22882597430737 32.214581732445396 C46.42096782515037 32.899991435491934, 44.862106731092545 33.50914387751209, 43.93081915528995 33.637403419581965 C42.99953157948736 33.76566296165184, 42.41253655852144 33.50058940569931, 41.641100519491815 32.98413898486466 C40.86966448046219 32.467688564030006, 39.67470820923596 31.235168931234803, 39.30220292111219 30.53870089457404 C38.92969763298842 29.842232857913274, 38.88962862812214 29.435393301647483, 39.4060687907492 28.805330764900063 C39.922508953376266 28.175268228152643, 41.5500323855439 27.292603483012684, 42.400843896874576 26.75832567408952 C43.25165540820525 26.224047865166355, 44.12368637392644 25.881169822900784, 44.51093785873324 25.599663911361077 C44.89818934354005 25.31815799982137, 44.77434211283462 25.118837842704664, 44.72435280571539 25.069290204851278" stroke="#1e1e1e" stroke-width="1" fill="none"></path></g><g><path d="M61.23393435035421 25.890606126662362 C62.204146375637535 25.952573867933367, 63.50733693393924 25.962302755180232, 63.97315824720262 26.58626427112753 C64.438979560466 27.210225787074826, 64.15650367829697 28.583309570581456, 64.02886222993445 29.634375222346144 C63.901220781571915 30.68544087411083, 63.803025148938964 32.177742676069066, 63.207309557027436 32.89265818171565 C62.61159396511591 33.60757368736224, 61.377695771598894 33.6611073929564, 60.45456867846528 33.923868256225674 C59.53144158533166 34.186629119494945, 58.46307725080289 34.86780561988811, 57.668546998225764 34.469223361331295 C56.87401674564864 34.07064110277448, 56.00053599255737 32.49639622107182, 55.687387163002526 31.532374704884802 C55.374238333447686 30.568353188697785, 55.396050211437455 29.61889155639924, 55.78965402089671 28.6850942642092 C56.18325783035597 27.751296972019162, 57.21411303220225 26.38137540163263, 58.04901001975806 25.929590951744565 C58.883907007313866 25.4778065018565, 60.17158641959012 26.039536626096233, 60.799035946231555 25.974387564880796 C61.42648547287299 25.90923850366536, 61.759030131335564 25.478038255948217, 61.81370717960666 25.53869658445195 M60.290851636759854 26.404636385608736 C61.17384458586664 26.641272702098078, 62.81228086937734 26.462060907601156, 63.51306204767986 27.212950007388326 C64.21384322598239 27.963839107175495, 64.4773341855321 29.9941414440123, 64.49553870657499 30.909970984331757 C64.51374322761788 31.825800524651214, 64.24649317873077 32.18005894866108, 63.62228917393724 32.70792724930506 C62.99808516914371 33.23579554994904, 61.8267363322846 33.914246296347855, 60.7503146778138 34.07718078819565 C59.673893023343 34.24011528004344, 57.980141002389594 34.062949397849266, 57.16375924711245 33.68553420039183 C56.34737749183531 33.30811900293439, 56.127431437618924 32.814390869767266, 55.852024146150946 31.812689603451023 C55.57661685468297 30.810988337134777, 55.051135949929275 28.745676394179227, 55.51131549830459 27.67532660249435 C55.971495046679905 26.604976810809475, 57.865508626984344 25.644594923903917, 58.61310143640286 25.390590853341763 C59.36069424582137 25.13658678277961, 59.7397979825517 26.18016678320916, 59.996872354815665 26.15130217912144 C60.25394672707963 26.12243757503372, 59.89334972963968 25.19389390802261, 60.15554766998663 25.217403228815456" stroke="none" stroke-width="0" fill="#2f9e44"></path><path d="M59.37367782444719 25.534856393079686 C60.17437034590015 25.221745311849507, 61.18961612255912 25.363922559722788, 62.0284196020857 25.768839867606125 C62.86722308161227 26.173757175489463, 64.14312913443398 27.00830758362155, 64.40649870160664 27.964360240379705 C64.6698682687793 28.920412897137858, 63.92813865356304 30.46173668856922, 63.60863700512163 31.505155808155042 C63.28913535668022 32.54857492774086, 63.17178951158631 33.67327933912676, 62.489488810958164 34.22487495789462 C61.80718811033002 34.77647057666248, 60.41456705534083 35.0783915412444, 59.514832801352746 34.81472952076223 C58.61509854736466 34.551067500280055, 57.80210002151625 33.338200189792445, 57.091083287029655 32.6429028350016 C56.380066552543056 31.947605480210754, 55.37303792717982 31.542380033613497, 55.24873239443315 30.64294539201715 C55.12442686168647 29.743510750420803, 55.73754522364914 28.061328824062443, 56.3452500905496 27.24629498542353 C56.95295495745005 26.431261146784614, 58.302091372421664 26.068855300003438, 58.89496159583589 25.752742360183674 C59.48783181925011 25.43662942036391, 59.90752912466888 25.27316288723135, 59.902471431034954 25.34961734650495 M61.52689840161196 26.303537564814267 C62.447259381746534 26.494937196873778, 63.56816548058623 26.260745398311833, 63.97664476098597 27.003915767660057 C64.38512404138571 27.74708613700828, 64.20394557292126 29.68118213485362, 63.977774084010385 30.762559780903622 C63.75160259509951 31.843937426953623, 63.200419495035256 32.860548747000585, 62.61961582752072 33.492181643960066 C62.03881216000618 34.12381454091955, 61.35633497945565 34.50044639670715, 60.49295207892315 34.552357162660506 C59.62956917839065 34.604267928613865, 58.10746060192086 34.16200355583611, 57.439318424325705 33.803646239680205 C56.77117624673055 33.4452889235243, 56.661582773139486 33.43146878257241, 56.48409901335219 32.40221326572508 C56.3066152535649 31.372957748877752, 56.30999954982523 28.65625816410687, 56.37441586560193 27.628113138596223 C56.438832181378636 26.599968113085577, 56.2719636027159 26.613443205860513, 56.8705969080124 26.233343112661196 C57.469230213308904 25.85324301946188, 59.425554000304864 25.318731704623225, 59.96621569738097 25.34751257940031 C60.50687739445707 25.376293454177393, 60.012584785983684 26.314502869194207, 60.11456709046903 26.406028361323703" stroke="#1e1e1e" stroke-width="1" fill="none"></path></g><text x="84" y="35" font-family="Virgil, 'Segoe Print', 'Comic Sans MS', Comic Sans, cursive" font-size="14" fill="#868e96">Obsidian  —  Taskgregator</text><g><path d="M11.600168826803564 47.74943863488734 C191.58054096959532 49.07031747986376, 370.47221949361267 49.019646748796106, 907.688967480883 47.749269703403115 M11.891868211515249 47.970438052527605 C324.93429923821236 49.691736773841086, 638.3590806143358 49.69419511377067, 907.9874759988859 47.853942222706976" stroke="#1e1e1e" stroke-width="1.2" fill="none"></path></g><g><path d="M23.27916219625622 60.43837548401207 L273.2229887465015 63.28978237416595 L274.68498336467894 554.8319964161143 L22.899002251960336 556.5377043774351" stroke="none" stroke-width="0" fill="#f8f9fa"></path><path d="M22.950307891579527 61.18539843531356 C73.29834271120407 60.50770873994373, 122.77172006895691 60.007922330768224, 275.19007617743944 62.86506517886859 M24.03969084543919 62.58341659513367 C89.51293178432431 63.61930940961546, 156.21832523548377 63.833172740129136, 274.1902670872574 62.18995140240345 M274.22509579679485 61.53945044334871 C274.86110810278916 186.62433185028257, 275.6265165951544 311.1365346825198, 274.06332629192036 556.5135424077961 M274.32947682147716 61.853226963970904 C275.98908816691534 163.1483925190325, 275.6461920380977 264.7552474402382, 273.7124584021618 555.6519891517302 M273.3814522949367 555.5293832905146 C211.57776385960366 557.3526086612177, 149.71899272204243 559.094067075134, 25.10934242469235 555.1102663244391 M273.389768833809 555.6830835942602 C191.87180971030017 557.2126278280332, 110.41612405381424 556.6140728184913, 24.600360113133704 556.0922630770667 M24.678183374505874 555.6884645331227 C23.59671492736849 427.1327079495051, 23.154981434723517 298.89640641031696, 24.655018789131987 62.14084619005914 M24.241239935289826 556.3669745352836 C24.160544806542102 412.1124785801645, 23.982775336058467 267.93798026502503, 23.74993958246074 62.35569272237802" stroke="#1e1e1e" stroke-width="1.4" fill="none"></path></g><text x="40" y="90" font-family="Virgil, 'Segoe Print', 'Comic Sans MS', Comic Sans, cursive" font-size="16" fill="#1e1e1e" font-weight="bold">Taskgregator</text><text x="248" y="90" font-family="Virgil, 'Segoe Print', 'Comic Sans MS', Comic Sans, cursive" font-size="16" fill="#868e96">↻</text><g><path d="M31.998913958109917 104.77567192371934 L266.859429856576 104.73860678132624 L266.88794139865786 127.41925461348146 L32.43944736365229 127.76369085963816" stroke="none" stroke-width="0" fill="#e7f5ff"></path><path d="M32.1690164902904 104.48371560807168 C77.86148730479403 106.434904630734, 126.31852897666114 104.9787932272655, 266.01890575434396 105.15800169708754 M32.4466726400045 103.6003546973077 C103.89816000325276 103.82138512568616, 175.81841904713139 103.32058625805108, 265.46761450698324 103.86073322861753 M265.77846485432235 103.47698299530893 C266.99432026496527 109.60618022996933, 266.6146958803236 117.6577859500423, 265.26691713985053 127.75725772622972 M265.6418719840236 104.00254080323502 C265.3755397076123 111.997079136502, 266.157899841141 120.51057527540252, 266.0240689617582 127.8328530284576 M266.7461590721134 127.3700186279899 C201.54332555909417 128.7374109465626, 135.47967410710544 129.49441318332342, 32.697915791208956 129.17022416753753 M265.5766679157054 127.57576637616889 C200.322914376601 128.38858209011633, 135.15252193242634 128.76796266593712, 32.41011840228355 128.1235060691745 M32.27788558062166 127.01486218813807 C30.875066504970192 122.6335489289835, 33.211549679532645 117.3957501122728, 31.271301168762147 105.37871731761842 M31.362849200982602 128.69378063110634 C32.240058588113634 123.25926277441904, 32.61124909731373 117.14438021359965, 32.14259199323133 104.65810526935384" stroke="#1971c2" stroke-width="1" fill="none"></path></g><text x="44" y="120" font-family="Virgil, 'Segoe Print', 'Comic Sans MS', Comic Sans, cursive" font-size="14" fill="#1971c2">★ Today</text><g><path d="M231.5950352370739 106.74592879414558 L250.1288222014904 106.57648814320564 L250.25916067957877 124.94516394734383 L230.40890223383903 126.51972964406013" stroke="none" stroke-width="0" fill="#f8f9fa"></path><path d="M229.3162151634693 109.02215582728385 C233.88582696579397 109.16981454327703, 237.44179741069675 107.67643475964665, 249.50248549580573 109.47736803889275 M230.0213509887457 108.23357774317265 C234.59903526343408 107.4806263345182, 240.11786638870834 107.96586450514198, 250.5140114158392 108.04505397379398 M251.52854111492633 107.28815860927105 C250.95046940511466 113.29654741689563, 252.26858622258902 121.45427399307489, 252.30388766109942 126.44128893077374 M251.6865590199828 107.29045359045267 C250.78387074005605 114.47677894994617, 251.12272386085988 120.91824499547482, 250.3790265855193 126.03230960279703 M250.24482577443123 127.38495756983757 C243.30441350080073 124.64345298859476, 238.09762549474834 125.54705806824565, 228.9833055794239 127.5436243712902 M251.10517495572566 126.10028783380986 C243.7107409890741 126.10168301573395, 238.3681960605085 126.5582529734671, 229.82319549024106 125.86950942575932 M229.70330067455768 126.26686157405376 C229.5049253514409 119.53996149972082, 230.47788469821214 115.04923513144256, 231.32192480862142 109.35243696391582 M229.538579569757 126.69441173940896 C229.72923685145378 120.98742782011628, 229.81642066073417 116.80122911810875, 229.86666420072316 108.54763310819864" stroke="#e03131" stroke-width="1" fill="none"></path></g><text x="240.5" y="121" font-family="Virgil, 'Segoe Print', 'Comic Sans MS', Comic Sans, cursive" font-size="11" fill="#e03131" text-anchor="middle">3</text><text x="44" y="150" font-family="Virgil, 'Segoe Print', 'Comic Sans MS', Comic Sans, cursive" font-size="14" fill="#1e1e1e">⚑ Flagged</text><g><path d="M228.7147869989276 137.88322523385287 L252.56526331156493 136.42531255036593 L252.0621187135577 155.13242214471103 L229.54934734553098 156.14571612626315" stroke="none" stroke-width="0" fill="#f8f9fa"></path><path d="M228.40202592164277 138.19326361864805 C235.23011831408365 138.2983052704409, 238.59388728123156 137.69025649762898, 250.46760977059603 138.19123644083737 M230.30241853818296 137.6452566303313 C234.59898702660576 137.4270576512441, 240.28375970814378 137.45655773039906, 250.84971198663115 137.84730667248368 M251.19496817067267 137.4685665397346 C250.37919287537036 145.9373747877404, 252.19521553371845 152.34298769272863, 251.8650820441544 157.25535337731242 M251.18088697098196 137.4349762699753 C250.42746427705885 142.20861789744347, 251.50326005390286 146.92015724524856, 251.3919779147953 155.56592508293687 M249.48706706315278 155.61420544832944 C245.39963417584076 156.0872256380245, 237.69250676948576 156.5560109716579, 228.8524708583951 155.6208055898547 M251.15043370351196 156.78530222550035 C244.94627803852782 155.69996716652065, 239.2166058635339 155.93936562214046, 229.7743552647531 156.7029848970473 M230.62446570828558 154.62420465275645 C229.01217161901297 151.91695957470685, 228.73777893312277 147.81369688801468, 230.30802104905248 137.04405881211161 M230.41550854824484 156.6931323263794 C229.65809869402645 151.8887992111221, 230.10964169377087 146.7372905740142, 229.46399741075933 138.53901476360858" stroke="#f08c00" stroke-width="1" fill="none"></path></g><text x="240.5" y="151" font-family="Virgil, 'Segoe Print', 'Comic Sans MS', Comic Sans, cursive" font-size="11" fill="#f08c00" text-anchor="middle">5</text><text x="44" y="180" font-family="Virgil, 'Segoe Print', 'Comic Sans MS', Comic Sans, cursive" font-size="14" fill="#1e1e1e">▣ All</text><g><path d="M229.0345387607813 169.02052167356015 L265.80170442163944 169.4741369575262 L264.66507674753666 185.31968034207821 L228.68979245722295 185.77170260846614" stroke="none" stroke-width="0" fill="#f8f9fa"></path><path d="M230.68783667981626 167.36437141001224 C236.17579430323093 167.82345054902135, 245.34874643348158 168.10073278702794, 265.4327340453863 166.905104842782 M230.58348608762026 168.6569355174899 C239.975321479328 168.58174134127793, 249.60241840668021 168.1555033289641, 265.1854125574231 167.64955937117338 M264.86139522641895 167.64897447019814 C263.80791634562615 175.6982021585852, 266.12184484484794 183.23170139238238, 265.42627642720936 185.1894178238511 M264.6752149219811 167.57949894949795 C265.22305781406163 173.5404568449408, 265.5957962469459 178.68206949502232, 264.96492924407124 186.53954056307674 M265.92930835187434 187.04345332682132 C253.46773208994418 187.61653272949158, 241.63314252234994 187.65049831710755, 228.7216361373663 186.89798680841923 M265.1956924512982 185.87031661719084 C254.80073953401296 186.5082786089927, 246.50286455862224 186.53050556249917, 229.72551503926516 185.93646036833525 M228.66563074201346 185.86154773145915 C231.111417886585 180.6939576496929, 229.58967316803339 176.2581586445868, 229.29411728948355 167.61568066030742 M229.85243752673267 186.69185291334986 C229.87496053659916 182.79017060212792, 229.25086272680758 178.1133520299196, 230.5013306207955 168.5303964190185" stroke="#868e96" stroke-width="1" fill="none"></path></g><text x="247.5" y="181" font-family="Virgil, 'Segoe Print', 'Comic Sans MS', Comic Sans, cursive" font-size="11" fill="#868e96" text-anchor="middle">128</text><text x="40" y="216" font-family="Virgil, 'Segoe Print', 'Comic Sans MS', Comic Sans, cursive" font-size="11" fill="#868e96" font-weight="bold">LISTS</text><text x="44" y="238" font-family="Virgil, 'Segoe Print', 'Comic Sans MS', Comic Sans, cursive" font-size="14" fill="#1e1e1e"># Follow-up</text><g><path d="M233.59255285561085 226.51889319121838 L254.0932333022356 226.26473221480848 L254.28874101936816 244.81774592101573 L233.41335335075854 243.9795944660902" stroke="none" stroke-width="0" fill="#f8f9fa"></path><path d="M231.77432274520396 225.1332337409258 C236.52874044869094 226.87072181491556, 241.36269611604513 224.63065213947, 251.5537282437086 227.41605205833912 M231.63202648311852 226.75036661475897 C237.19855289515107 225.53693950177728, 241.7767995830625 226.26479675771296, 252.6710171237588 225.66758096069097 M253.07281167238952 227.0922379139066 C252.13370410767197 231.06482112534346, 252.6708793338835 238.26141098961236, 252.79583149164915 243.9419333961606 M252.94983852997422 225.29568038567902 C253.25180611008406 229.95516842491924, 253.7600857912898 234.9373674932122, 252.42853987827897 243.68846440419554 M254.26723866164684 243.67743635475637 C248.05662025120108 244.28117948289216, 241.24643824212254 244.03658710236846, 232.87495836913587 245.5154365569353 M253.5577624335885 244.55043175071478 C247.46611148361117 244.80452452360095, 242.05229409076273 244.68937946020068, 231.3347932353616 244.20426413863896 M232.27495101183652 245.12029236108066 C231.76138802716136 240.42994224958122, 231.78082704731824 236.21385269716382, 231.8228872129321 227.30865544587374 M231.66786935463549 244.68161760911346 C231.88185527718068 237.92114173017444, 232.73263099110127 232.72184367716312, 232.15999630108476 226.46144966229795" stroke="#868e96" stroke-width="1" fill="none"></path></g><text x="242.5" y="239" font-family="Virgil, 'Segoe Print', 'Comic Sans MS', Comic Sans, cursive" font-size="11" fill="#868e96" text-anchor="middle">7</text><text x="44" y="266" font-family="Virgil, 'Segoe Print', 'Comic Sans MS', Comic Sans, cursive" font-size="14" fill="#1e1e1e"># Snippet Ideas</text><g><path d="M233.59255285561085 254.51889319121838 L254.0932333022356 254.26473221480848 L254.28874101936816 272.8177459210157 L233.41335335075854 271.9795944660902" stroke="none" stroke-width="0" fill="#f8f9fa"></path><path d="M231.77432274520396 253.1332337409258 C236.52874044869094 254.87072181491556, 241.36269611604513 252.63065213947, 251.5537282437086 255.41605205833912 M231.63202648311852 254.75036661475897 C237.19855289515107 253.53693950177728, 241.7767995830625 254.26479675771296, 252.6710171237588 253.66758096069097 M253.07281167238952 255.0922379139066 C252.13370410767197 259.0648211253434, 252.6708793338835 266.26141098961233, 252.79583149164915 271.9419333961606 M252.94983852997422 253.29568038567902 C253.25180611008406 257.9551684249193, 253.7600857912898 262.9373674932122, 252.42853987827897 271.68846440419554 M254.26723866164684 271.67743635475637 C248.05662025120108 272.2811794828922, 241.24643824212254 272.0365871023685, 232.87495836913587 273.5154365569353 M253.5577624335885 272.5504317507148 C247.46611148361117 272.8045245236009, 242.05229409076273 272.68937946020066, 231.3347932353616 272.20426413863896 M232.27495101183652 273.12029236108066 C231.76138802716136 268.4299422495812, 231.78082704731824 264.2138526971638, 231.8228872129321 255.30865544587374 M231.66786935463549 272.68161760911346 C231.88185527718068 265.92114173017444, 232.73263099110127 260.7218436771631, 232.15999630108476 254.46144966229795" stroke="#868e96" stroke-width="1" fill="none"></path></g><text x="242.5" y="267" font-family="Virgil, 'Segoe Print', 'Comic Sans MS', Comic Sans, cursive" font-size="11" fill="#868e96" text-anchor="middle">4</text><text x="44" y="294" font-family="Virgil, 'Segoe Print', 'Comic Sans MS', Comic Sans, cursive" font-size="14" fill="#1e1e1e"># Someday</text><g><path d="M233.59255285561085 282.51889319121835 L254.0932333022356 282.2647322148085 L254.28874101936816 300.8177459210157 L233.41335335075854 299.9795944660902" stroke="none" stroke-width="0" fill="#f8f9fa"></path><path d="M231.77432274520396 281.1332337409258 C236.52874044869094 282.87072181491556, 241.36269611604513 280.63065213947, 251.5537282437086 283.4160520583391 M231.63202648311852 282.75036661475895 C237.19855289515107 281.5369395017773, 241.7767995830625 282.26479675771293, 252.6710171237588 281.667580960691 M253.07281167238952 283.09223791390656 C252.13370410767197 287.0648211253434, 252.6708793338835 294.26141098961233, 252.79583149164915 299.9419333961606 M252.94983852997422 281.295680385679 C253.25180611008406 285.9551684249193, 253.7600857912898 290.9373674932122, 252.42853987827897 299.68846440419554 M254.26723866164684 299.67743635475637 C248.05662025120108 300.2811794828922, 241.24643824212254 300.0365871023685, 232.87495836913587 301.5154365569353 M253.5577624335885 300.5504317507148 C247.46611148361117 300.8045245236009, 242.05229409076273 300.68937946020066, 231.3347932353616 300.20426413863896 M232.27495101183652 301.12029236108066 C231.76138802716136 296.4299422495812, 231.78082704731824 292.2138526971638, 231.8228872129321 283.30865544587374 M231.66786935463549 300.68161760911346 C231.88185527718068 293.92114173017444, 232.73263099110127 288.7218436771631, 232.15999630108476 282.461449662298" stroke="#868e96" stroke-width="1" fill="none"></path></g><text x="242.5" y="295" font-family="Virgil, 'Segoe Print', 'Comic Sans MS', Comic Sans, cursive" font-size="11" fill="#868e96" text-anchor="middle">9</text><text x="40" y="330" font-family="Virgil, 'Segoe Print', 'Comic Sans MS', Comic Sans, cursive" font-size="11" fill="#868e96" font-weight="bold">CONTEXT</text><text x="44" y="352" font-family="Virgil, 'Segoe Print', 'Comic Sans MS', Comic Sans, cursive" font-size="13" fill="#1e1e1e" font-weight="bold">▾ Projects</text><g><path d="M233.5900704741478 339.0918575882912 L259.8576444029808 338.7529762864113 L260.11832135915756 357.49032789468765 L231.21780446767806 357.43945928812025" stroke="none" stroke-width="0" fill="#f8f9fa"></path><path d="M232.23243032693864 340.44431165456774 C238.5729126960039 340.621678678751, 242.88611235022543 340.83491911149025, 258.6049709916115 341.3547360777855 M231.24270197749138 339.6671554863453 C239.5766002446413 339.57820937204366, 246.5927922129631 340.5486857132912, 259.82802283167837 339.29010794758796 M259.61708222985266 340.0163172185421 C261.48493881022927 344.8330948337913, 261.241172445178 351.06854798614984, 261.16777532219885 357.4425778615475 M260.65311803996565 339.30090718090537 C260.43174148011207 346.47355789989234, 259.66944772171973 352.15648999094964, 259.47805317103865 357.3446192055941 M260.08965154886243 359.16991513967514 C253.02053358256816 356.75084637904166, 246.21866415143015 358.5580565383434, 231.56661115884782 359.4872487425804 M259.41034991145136 357.4005756676197 C252.96595874726773 357.5477544784546, 247.42534565925598 358.4608943939209, 232.4463909804821 358.5390188515186 M232.84660134911536 357.09372314810753 C232.3058507028818 353.7199229994416, 231.3717693964243 349.05847026288507, 233.2038496172428 341.2648739278317 M231.79715913951398 358.66882347881796 C232.03447370290758 352.2948556402326, 232.20884132146836 346.08245823621746, 232.45332840144636 340.3752662163973" stroke="#868e96" stroke-width="1" fill="none"></path></g><text x="246" y="353" font-family="Virgil, 'Segoe Print', 'Comic Sans MS', Comic Sans, cursive" font-size="11" fill="#868e96" text-anchor="middle">24</text><text x="60" y="377" font-family="Virgil, 'Segoe Print', 'Comic Sans MS', Comic Sans, cursive" font-size="13" fill="#1e1e1e" font-weight="normal">Website Redesign</text><g><path d="M233.5900704741478 364.0918575882912 L252.8576444029808 363.7529762864113 L253.11832135915756 382.49032789468765 L231.21780446767806 382.43945928812025" stroke="none" stroke-width="0" fill="#f8f9fa"></path><path d="M232.23243032693864 365.44431165456774 C237.1716539315879 365.571629086554, 240.0835948213935 365.7848695192933, 251.60497099161148 366.3547360777855 M231.24270197749138 364.6671554863453 C237.79807052686812 364.5932526690364, 243.0357327774167 365.56372901028396, 252.8280228316784 364.29010794758796 M252.61708222985268 365.0163172185421 C254.4849388102293 369.8330948337913, 254.24117244517802 376.06854798614984, 254.16777532219888 382.4425778615475 M253.65311803996562 364.30090718090537 C253.4317414801121 371.47355789989234, 252.66944772171976 377.15648999094964, 252.47805317103862 382.3446192055941 M253.08965154886246 384.16991513967514 C247.60882700160147 381.71890597718954, 242.39525098949673 383.5261161364913, 231.56661115884782 384.4872487425804 M252.41034991145133 382.4005756676197 C247.62148197814824 382.5713660314679, 243.73639212101696 383.48450594693423, 232.4463909804821 383.5390188515186 M232.84660134911536 382.09372314810753 C232.3058507028818 378.7199229994416, 231.3717693964243 374.05847026288507, 233.2038496172428 366.2648739278317 M231.79715913951398 383.66882347881796 C232.03447370290758 377.2948556402326, 232.20884132146836 371.08245823621746, 232.45332840144636 365.3752662163973" stroke="#868e96" stroke-width="1" fill="none"></path></g><text x="242.5" y="378" font-family="Virgil, 'Segoe Print', 'Comic Sans MS', Comic Sans, cursive" font-size="11" fill="#868e96" text-anchor="middle">6</text><text x="60" y="402" font-family="Virgil, 'Segoe Print', 'Comic Sans MS', Comic Sans, cursive" font-size="13" fill="#1e1e1e" font-weight="normal">Home Renovation</text><g><path d="M233.5900704741478 389.0918575882912 L252.8576444029808 388.7529762864113 L253.11832135915756 407.49032789468765 L231.21780446767806 407.43945928812025" stroke="none" stroke-width="0" fill="#f8f9fa"></path><path d="M232.23243032693864 390.44431165456774 C237.1716539315879 390.571629086554, 240.0835948213935 390.7848695192933, 251.60497099161148 391.3547360777855 M231.24270197749138 389.6671554863453 C237.79807052686812 389.5932526690364, 243.0357327774167 390.56372901028396, 252.8280228316784 389.29010794758796 M252.61708222985268 390.0163172185421 C254.4849388102293 394.8330948337913, 254.24117244517802 401.06854798614984, 254.16777532219888 407.4425778615475 M253.65311803996562 389.30090718090537 C253.4317414801121 396.47355789989234, 252.66944772171976 402.15648999094964, 252.47805317103862 407.3446192055941 M253.08965154886246 409.16991513967514 C247.60882700160147 406.71890597718954, 242.39525098949673 408.5261161364913, 231.56661115884782 409.4872487425804 M252.41034991145133 407.4005756676197 C247.62148197814824 407.5713660314679, 243.73639212101696 408.48450594693423, 232.4463909804821 408.5390188515186 M232.84660134911536 407.09372314810753 C232.3058507028818 403.7199229994416, 231.3717693964243 399.05847026288507, 233.2038496172428 391.2648739278317 M231.79715913951398 408.66882347881796 C232.03447370290758 402.2948556402326, 232.20884132146836 396.08245823621746, 232.45332840144636 390.3752662163973" stroke="#868e96" stroke-width="1" fill="none"></path></g><text x="242.5" y="403" font-family="Virgil, 'Segoe Print', 'Comic Sans MS', Comic Sans, cursive" font-size="11" fill="#868e96" text-anchor="middle">5</text><text x="44" y="427" font-family="Virgil, 'Segoe Print', 'Comic Sans MS', Comic Sans, cursive" font-size="13" fill="#1e1e1e" font-weight="bold">▾ People</text><g><path d="M233.5900704741478 414.0918575882912 L259.8576444029808 413.7529762864113 L260.11832135915756 432.49032789468765 L231.21780446767806 432.43945928812025" stroke="none" stroke-width="0" fill="#f8f9fa"></path><path d="M232.23243032693864 415.44431165456774 C238.5729126960039 415.621678678751, 242.88611235022543 415.83491911149025, 258.6049709916115 416.3547360777855 M231.24270197749138 414.6671554863453 C239.5766002446413 414.57820937204366, 246.5927922129631 415.5486857132912, 259.82802283167837 414.29010794758796 M259.61708222985266 415.0163172185421 C261.48493881022927 419.8330948337913, 261.241172445178 426.06854798614984, 261.16777532219885 432.4425778615475 M260.65311803996565 414.30090718090537 C260.43174148011207 421.47355789989234, 259.66944772171973 427.15648999094964, 259.47805317103865 432.3446192055941 M260.08965154886243 434.16991513967514 C253.02053358256816 431.75084637904166, 246.21866415143015 433.5580565383434, 231.56661115884782 434.4872487425804 M259.41034991145136 432.4005756676197 C252.96595874726773 432.5477544784546, 247.42534565925598 433.4608943939209, 232.4463909804821 433.5390188515186 M232.84660134911536 432.09372314810753 C232.3058507028818 428.7199229994416, 231.3717693964243 424.05847026288507, 233.2038496172428 416.2648739278317 M231.79715913951398 433.66882347881796 C232.03447370290758 427.2948556402326, 232.20884132146836 421.08245823621746, 232.45332840144636 415.3752662163973" stroke="#868e96" stroke-width="1" fill="none"></path></g><text x="246" y="428" font-family="Virgil, 'Segoe Print', 'Comic Sans MS', Comic Sans, cursive" font-size="11" fill="#868e96" text-anchor="middle">31</text><text x="60" y="452" font-family="Virgil, 'Segoe Print', 'Comic Sans MS', Comic Sans, cursive" font-size="13" fill="#1e1e1e" font-weight="normal">Alex</text><g><path d="M233.5900704741478 439.0918575882912 L252.8576444029808 438.7529762864113 L253.11832135915756 457.49032789468765 L231.21780446767806 457.43945928812025" stroke="none" stroke-width="0" fill="#f8f9fa"></path><path d="M232.23243032693864 440.44431165456774 C237.1716539315879 440.571629086554, 240.0835948213935 440.7848695192933, 251.60497099161148 441.3547360777855 M231.24270197749138 439.6671554863453 C237.79807052686812 439.5932526690364, 243.0357327774167 440.56372901028396, 252.8280228316784 439.29010794758796 M252.61708222985268 440.0163172185421 C254.4849388102293 444.8330948337913, 254.24117244517802 451.06854798614984, 254.16777532219888 457.4425778615475 M253.65311803996562 439.30090718090537 C253.4317414801121 446.47355789989234, 252.66944772171976 452.15648999094964, 252.47805317103862 457.3446192055941 M253.08965154886246 459.16991513967514 C247.60882700160147 456.71890597718954, 242.39525098949673 458.5261161364913, 231.56661115884782 459.4872487425804 M252.41034991145133 457.4005756676197 C247.62148197814824 457.5713660314679, 243.73639212101696 458.48450594693423, 232.4463909804821 458.5390188515186 M232.84660134911536 457.09372314810753 C232.3058507028818 453.7199229994416, 231.3717693964243 449.05847026288507, 233.2038496172428 441.2648739278317 M231.79715913951398 458.66882347881796 C232.03447370290758 452.2948556402326, 232.20884132146836 446.08245823621746, 232.45332840144636 440.3752662163973" stroke="#868e96" stroke-width="1" fill="none"></path></g><text x="242.5" y="453" font-family="Virgil, 'Segoe Print', 'Comic Sans MS', Comic Sans, cursive" font-size="11" fill="#868e96" text-anchor="middle">2</text><text x="60" y="477" font-family="Virgil, 'Segoe Print', 'Comic Sans MS', Comic Sans, cursive" font-size="13" fill="#1e1e1e" font-weight="normal">Jordan</text><g><path d="M233.5900704741478 464.0918575882912 L252.8576444029808 463.7529762864113 L253.11832135915756 482.49032789468765 L231.21780446767806 482.43945928812025" stroke="none" stroke-width="0" fill="#f8f9fa"></path><path d="M232.23243032693864 465.44431165456774 C237.1716539315879 465.571629086554, 240.0835948213935 465.7848695192933, 251.60497099161148 466.3547360777855 M231.24270197749138 464.6671554863453 C237.79807052686812 464.5932526690364, 243.0357327774167 465.56372901028396, 252.8280228316784 464.29010794758796 M252.61708222985268 465.0163172185421 C254.4849388102293 469.8330948337913, 254.24117244517802 476.06854798614984, 254.16777532219888 482.4425778615475 M253.65311803996562 464.30090718090537 C253.4317414801121 471.47355789989234, 252.66944772171976 477.15648999094964, 252.47805317103862 482.3446192055941 M253.08965154886246 484.16991513967514 C247.60882700160147 481.71890597718954, 242.39525098949673 483.5261161364913, 231.56661115884782 484.4872487425804 M252.41034991145133 482.4005756676197 C247.62148197814824 482.5713660314679, 243.73639212101696 483.48450594693423, 232.4463909804821 483.5390188515186 M232.84660134911536 482.09372314810753 C232.3058507028818 478.7199229994416, 231.3717693964243 474.05847026288507, 233.2038496172428 466.2648739278317 M231.79715913951398 483.66882347881796 C232.03447370290758 477.2948556402326, 232.20884132146836 471.08245823621746, 232.45332840144636 465.3752662163973" stroke="#868e96" stroke-width="1" fill="none"></path></g><text x="242.5" y="478" font-family="Virgil, 'Segoe Print', 'Comic Sans MS', Comic Sans, cursive" font-size="11" fill="#868e96" text-anchor="middle">8</text><text x="44" y="502" font-family="Virgil, 'Segoe Print', 'Comic Sans MS', Comic Sans, cursive" font-size="13" fill="#1e1e1e" font-weight="bold">▾ Areas</text><g><path d="M233.5900704741478 489.0918575882912 L259.8576444029808 488.7529762864113 L260.11832135915756 507.49032789468765 L231.21780446767806 507.43945928812025" stroke="none" stroke-width="0" fill="#f8f9fa"></path><path d="M232.23243032693864 490.44431165456774 C238.5729126960039 490.621678678751, 242.88611235022543 490.83491911149025, 258.6049709916115 491.3547360777855 M231.24270197749138 489.6671554863453 C239.5766002446413 489.57820937204366, 246.5927922129631 490.5486857132912, 259.82802283167837 489.29010794758796 M259.61708222985266 490.0163172185421 C261.48493881022927 494.8330948337913, 261.241172445178 501.06854798614984, 261.16777532219885 507.4425778615475 M260.65311803996565 489.30090718090537 C260.43174148011207 496.47355789989234, 259.66944772171973 502.15648999094964, 259.47805317103865 507.3446192055941 M260.08965154886243 509.16991513967514 C253.02053358256816 506.75084637904166, 246.21866415143015 508.5580565383434, 231.56661115884782 509.4872487425804 M259.41034991145136 507.4005756676197 C252.96595874726773 507.5477544784546, 247.42534565925598 508.4608943939209, 232.4463909804821 508.5390188515186 M232.84660134911536 507.09372314810753 C232.3058507028818 503.7199229994416, 231.3717693964243 499.05847026288507, 233.2038496172428 491.2648739278317 M231.79715913951398 508.66882347881796 C232.03447370290758 502.2948556402326, 232.20884132146836 496.08245823621746, 232.45332840144636 490.3752662163973" stroke="#868e96" stroke-width="1" fill="none"></path></g><text x="246" y="503" font-family="Virgil, 'Segoe Print', 'Comic Sans MS', Comic Sans, cursive" font-size="11" fill="#868e96" text-anchor="middle">12</text><text x="296" y="82" font-family="Virgil, 'Segoe Print', 'Comic Sans MS', Comic Sans, cursive" font-size="18" fill="#1e1e1e" font-weight="bold">People  /  Alex</text><text x="876" y="82" font-family="Virgil, 'Segoe Print', 'Comic Sans MS', Comic Sans, cursive" font-size="14" fill="#868e96" text-anchor="end">2</text><g><path d="M293.60016882680355 93.74943863488734 C413.57110023647544 94.7214744944945, 532.453338027373 94.67080376342683, 889.688967480883 93.74926970340312 M293.89186821151526 93.97043805252761 C502.0953263549134 95.10494295570254, 710.6811348477379 95.10740129563212, 889.9874759988859 93.85394222270698" stroke="#1e1e1e" stroke-width="1.2" fill="none"></path></g><g><path d="M295.5851057112217 117.43778638243676 L892.5864666044712 116.92946442961693 L892.9774820387363 196.0354918420315 L295.2267067015171 197.5591889321804" stroke="none" stroke-width="0" fill="#ffffff"></path><path d="M294.45945819616315 117.94658699274063 C413.3820282517374 119.5414872831583, 533.6482286784053 119.02943154280186, 891.4829825949669 118.4928416466713 M294.02562118649485 118.28029329180717 C461.9033683730662 116.21515311300755, 630.2704917803406 116.15743891775608, 892.0568136990071 118.05406476855278 M890.5618037164211 118.82719536423683 C891.5085637457968 137.36318401023746, 892.7022864707113 156.6636318847537, 893.1462922036648 197.4709631025791 M892.6885300666094 117.2348453015089 C891.5474271255135 141.20648982897401, 892.676937528193 165.89526997655628, 891.5300886183977 196.1076986759901 M892.3737909293175 196.3819490838051 C688.4157676590978 196.1742246036291, 485.25809350997207 197.25855069921016, 294.0599666953087 196.57234924554825 M892.1262099468709 196.12034540057184 C679.7693541310726 196.01185966842175, 467.9547651609778 195.91974361770153, 293.7878345882893 195.84341131091116 M293.01100224852564 196.88953858017922 C294.97729845923186 178.37011282518506, 295.02049628180265 164.10459942370653, 295.20641602873803 119.30812321305275 M294.06193189919 196.7147057980299 C294.4177066351772 178.18481346592307, 294.7083193327785 161.52420519143342, 293.5555473357439 118.22544369399547" stroke="#1e1e1e" stroke-width="1.4" fill="none"></path></g><g><path d="M306.56607776492837 135.05979085594416 C310.9294423380494 133.70105465307833, 313.5398366352916 134.75690833464265, 322.8828293117881 135.05370932251216 M307.7072556145489 133.65576989099384 C312.5425270344317 134.08275769555567, 316.7424110336602 134.17125793302057, 324.26913595989345 133.78192001745106 M325.1298939022422 133.66855513244866 C323.32264291790125 137.68759307593106, 323.61605177906154 140.58931320935488, 323.523606813848 150.82451125770808 M323.88295656993984 133.31658756658436 C323.8195475901961 140.77332065448164, 323.56553351300954 147.063046143502, 323.6265930493176 149.7530836097896 M323.7812011894584 149.32261634498835 C317.9004152563214 150.3870903236568, 314.60054576605563 148.91344632455707, 306.9574125751853 151.26241676956414 M324.69130111053585 150.67590667650103 C319.5890884579718 149.47421409898996, 314.47032627537845 150.1924094658494, 308.5230657942593 149.94895469114184 M307.6815523609519 148.7740155091882 C306.7712387300432 144.86316972345114, 308.73659644374254 140.1389319089055, 307.5867368301749 135.1335293737054 M308.18502849414944 150.6304410879314 C308.49232898008825 145.2232748888433, 308.0774723125696 141.53885695025326, 307.8933247025311 134.11671587869526" stroke="#1e1e1e" stroke-width="1.4" fill="none"></path></g><text x="334" y="146" font-family="Virgil, 'Segoe Print', 'Comic Sans MS', Comic Sans, cursive" font-size="14" fill="#1e1e1e">Ask Alex to review the homepage mockups</text><g><path d="M423.98014094829557 159.78371517658235 L619.7152888059616 159.10595257282256 L617.0366427183151 178.5806557893753 L422.43560893535613 178.47891857624055" stroke="none" stroke-width="0" fill="#f8f9fa"></path><path d="M421.26486065387724 159.28862330913543 C462.0062460839748 160.4777377829552, 501.8930660843849 160.9042186484337, 617.209941983223 161.10947215557098 M421.68540395498275 160.13431097269057 C482.92262694239616 160.80234048843383, 543.1244373321533 161.14329317092896, 618.8560456633568 159.38021589517592 M619.0741644597053 158.5926344370842 C619.7858776204587 163.9061896675825, 619.2983448903561 166.2970959722996, 619.2955506443977 178.32515572309495 M618.9862360799312 159.32181436181068 C618.6874829602242 165.02711579978467, 618.6028954434395 169.19297998189927, 618.0761063420772 177.4092384111881 M616.9793030977249 178.7398302793503 C569.0029830515384 177.0668320469856, 518.3611600756645 177.48125236558914, 423.1332223176956 179.37449748516082 M618.0206998229027 177.60115133523942 C564.8668024122715 178.3301544122696, 511.9204611539841 178.55643424320223, 422.4927819609642 178.27803770303726 M422.6532026982307 177.62744629621506 C421.7157014057636 171.59984599888327, 422.7275387928486 165.87694052577018, 423.3676992344856 161.0897478556633 M422.7143182790279 178.61764695763588 C423.0449474058151 173.06971128046513, 421.9536826429367 167.84491647243502, 422.58665680289266 160.03053243279456" stroke="#868e96" stroke-width="1" fill="none"></path></g><text x="520.4" y="173" font-family="Virgil, 'Segoe Print', 'Comic Sans MS', Comic Sans, cursive" font-size="11" fill="#868e96" text-anchor="middle">Projects: Website Redesign</text><g><path d="M591.1801409482956 159.78371517658235 L702.9152888059616 159.10595257282256 L700.2366427183151 178.5806557893753 L589.6356089353561 178.47891857624055" stroke="none" stroke-width="0" fill="#f8f9fa"></path><path d="M588.4648606538773 159.28862330913543 C612.3760357379913 159.94854757022858, 635.4326453924178 160.3750284357071, 700.409941983223 161.10947215557098 M588.8854039549827 160.13431097269057 C624.2379137158395 160.49137961626053, 658.5550108790397 160.83233229875566, 702.0560456633568 159.38021589517592 M702.2741644597054 158.5926344370842 C702.9858776204587 163.9061896675825, 702.4983448903562 166.2970959722996, 702.4955506443978 178.32515572309495 M702.1862360799313 159.32181436181068 C701.8874829602242 165.02711579978467, 701.8028954434395 169.19297998189927, 701.2761063420772 177.4092384111881 M700.179303097725 178.7398302793503 C673.5220251083374 176.97226240253448, 644.1992441892625 177.38668272113802, 590.3332223176957 179.37449748516082 M701.2206998229027 177.60115133523942 C670.9993599534035 178.22483168458936, 640.9855762362481 178.451111515522, 589.6927819609642 178.27803770303726 M589.8532026982308 177.62744629621506 C588.9157014057637 171.59984599888327, 589.9275387928486 165.87694052577018, 590.5676992344856 161.0897478556633 M589.914318279028 178.61764695763588 C590.2449474058151 173.06971128046513, 589.1536826429367 167.84491647243502, 589.7866568028927 160.03053243279456" stroke="#e03131" stroke-width="1" fill="none"></path></g><text x="645.6" y="173" font-family="Virgil, 'Segoe Print', 'Comic Sans MS', Comic Sans, cursive" font-size="11" fill="#e03131" text-anchor="middle">due 2026-06-30</text><g><path d="M687.9801409482956 159.78371517658235 L743.7152888059616 159.10595257282256 L741.0366427183151 178.5806557893753 L686.4356089353561 178.47891857624055" stroke="none" stroke-width="0" fill="#f8f9fa"></path><path d="M685.2648606538772 159.28862330913543 C697.9558955073356 159.59575409507752, 709.7923649311065 160.02223496055603, 741.209941983223 161.10947215557098 M685.6854039549827 160.13431097269057 C703.7814382314682 160.284072368145, 720.8420599102974 160.62502505064012, 742.8560456633568 159.38021589517592 M743.0741644597053 158.5926344370842 C743.7858776204587 163.9061896675825, 743.2983448903561 166.2970959722996, 743.2955506443977 178.32515572309495 M742.9862360799312 159.32181436181068 C742.6874829602242 165.02711579978467, 742.6028954434395 169.19297998189927, 742.0761063420772 177.4092384111881 M740.9793030977249 178.7398302793503 C728.53471981287 176.90921597290037, 713.4246335983277 177.3236362915039, 687.1332223176956 179.37449748516082 M742.0206998229027 177.60115133523942 C727.0877316474914 178.15461653280258, 712.362319624424 178.38089636373522, 686.4927819609642 178.27803770303726 M686.6532026982308 177.62744629621506 C685.7157014057636 171.59984599888327, 686.7275387928486 165.87694052577018, 687.3676992344856 161.0897478556633 M686.7143182790279 178.61764695763588 C687.044947405815 173.06971128046513, 685.9536826429367 167.84491647243502, 686.5866568028927 160.03053243279456" stroke="#1971c2" stroke-width="1" fill="none"></path></g><text x="714.4" y="173" font-family="Virgil, 'Segoe Print', 'Comic Sans MS', Comic Sans, cursive" font-size="11" fill="#1971c2" text-anchor="middle">▤ note</text><text x="836" y="148" font-family="Virgil, 'Segoe Print', 'Comic Sans MS', Comic Sans, cursive" font-size="20" fill="#e03131">⚑</text><text x="866" y="148" font-family="Virgil, 'Segoe Print', 'Comic Sans MS', Comic Sans, cursive" font-size="20" fill="#868e96">⋯</text><g><path d="M292.7048574730754 210.57508282214403 L891.8229077145457 208.77828883677722 L891.5804400727153 288.22275003939865 L294.36715181320903 289.1851754143834" stroke="none" stroke-width="0" fill="#ffffff"></path><path d="M294.09378249943256 209.6150301092863 C413.92239538926634 208.97229873787762, 534.1143658230454 208.81437540184857, 891.869032304883 209.97838900744915 M294.13804820626973 210.04496484667064 C475.1324245126173 209.243005664891, 655.5149999766797 209.64299623305203, 892.1910939273238 209.97496584802866 M893.3911671116948 211.02764862030745 C891.12357314156 230.11257041040807, 892.8705245785565 251.68135908283293, 892.6587304070592 287.1754791542888 M892.1266722343862 209.39542605653406 C892.1134842442721 238.6532646594569, 890.8618198203295 267.7868578094989, 892.655590095371 287.5894936539233 M892.0706874448061 287.6736482352018 C678.7333637867495 288.73190168035626, 466.6150617351383 288.3622998775303, 294.00763280689716 287.80322173297407 M892.1443134459853 287.75435115724804 C694.4655100332573 289.90891066289544, 496.6980112469941 289.7299260113299, 293.76829849809405 288.17680149942635 M294.0345189526677 287.0643642231822 C294.55705343355237 263.9762813722715, 293.214304553166 241.10634274743498, 294.07985629588364 208.74325859993695 M293.4362974308431 288.71328422799706 C294.8372017457634 257.6878936903551, 293.93265798832476 226.4562752779573, 294.70813979133965 210.21586775556207" stroke="#1e1e1e" stroke-width="1.4" fill="none"></path></g><g><path d="M308.62330744728445 226.31378786817194 C312.1392915143073 224.92535543383656, 314.57669144436716 226.77800702513753, 323.75144115909933 225.89619088426232 M307.96021640904246 226.5662808894366 C312.48056313492356 225.74245423406364, 318.20787404842673 225.4207901892066, 324.5712664736062 225.60394744627177 M324.7963209579885 225.84896306291222 C322.463366388157 229.41341583415866, 323.254681090191 233.40801768377423, 323.084801196903 240.75857570424677 M323.377284520939 225.46111024610698 C323.463141127199 230.76836809240282, 323.9460697060526 234.15137537412346, 324.63954437859354 241.28669908992947 M323.09921834930776 242.60893943563104 C319.83156404569746 240.80656304256618, 314.32683927699924 241.82158127205076, 306.8396613262594 241.53187986627222 M323.2920339835435 241.85241962902248 C319.1912182930857 242.54464572897552, 315.09418807931246 241.62738674393296, 308.47910959132014 242.69908261530102 M308.60271739467976 242.01135858789087 C309.15848499761523 235.81378643378616, 306.9964906786531 230.9306309361756, 306.572833070606 224.82515122190117 M307.6219574726373 242.62916167490184 C308.7091908226609 238.05217881582675, 308.6586933456063 234.76998347811403, 307.49065791256726 226.10809753410518" stroke="#1e1e1e" stroke-width="1.4" fill="none"></path></g><text x="334" y="238" font-family="Virgil, 'Segoe Print', 'Comic Sans MS', Comic Sans, cursive" font-size="14" fill="#1e1e1e">Send Alex the updated project timeline</text><g><path d="M373.4998927101493 252.9210116162896 L473.35172991603616 250.95477697998285 L473.23960075229405 270.7679139867425 L373.9760540470481 270.10490505844353" stroke="none" stroke-width="0" fill="#f8f9fa"></path><path d="M375.9506714120507 250.45973110049962 C392.9156381888315 250.2480035664588, 412.97535746805374 251.55981544275582, 472.57506625801324 251.82334055751562 M374.3664715044201 251.54598985984921 C406.76784228030596 251.16804721428454, 440.18085780106486 251.05326180531085, 473.59174623414873 252.78246859386564 M473.14059151545166 250.77304236754776 C473.61460109071436 255.6670170384273, 473.62497420148554 259.18580967195334, 473.2567450274527 271.13922016963363 M472.88056403093043 251.4663370413333 C472.44307649722697 258.3589547472819, 473.0954316364825 264.394892231673, 473.48905767135324 270.38285389132795 M473.8215443864465 268.96907815784215 C445.96363876927643 270.39365705506503, 419.6869114357978 270.3732576276511, 375.4023875966668 269.45167870372535 M472.465958570689 270.2861657269299 C449.1117210378871 268.9240688703507, 424.38763410933313 268.93317719917, 374.8439417354763 269.5115131743252 M375.97436773195864 270.86478937491773 C373.3349476733357 265.9768440738693, 375.9794330277592 260.6414022823423, 374.7537954749167 250.7813697038591 M374.5512472575158 270.6163675446063 C374.22180924838784 264.5310826714709, 374.93490367597343 259.78097792834046, 374.58399001292884 252.0219140882045" stroke="#868e96" stroke-width="1" fill="none"></path></g><text x="423.8" y="265" font-family="Virgil, 'Segoe Print', 'Comic Sans MS', Comic Sans, cursive" font-size="11" fill="#868e96" text-anchor="middle">People: Alex</text><g><path d="M469.8998927101493 252.9210116162896 L541.7517299160362 250.95477697998285 L541.6396007522941 270.7679139867425 L470.37605404704806 270.10490505844353" stroke="none" stroke-width="0" fill="#f8f9fa"></path><path d="M472.3506714120507 250.45973110049962 C483.70544219706204 250.3410018696636, 498.15496548451483 251.6528137459606, 540.9750662580133 251.82334055751562 M470.76647150442005 251.54598985984921 C493.941751566343 251.38509791992604, 518.1286763731391 251.27031251095235, 541.9917462341488 252.78246859386564 M541.5405915154518 250.77304236754776 C542.0146010907143 255.6670170384273, 542.0249742014855 259.18580967195334, 541.6567450274528 271.13922016963363 M541.2805640309305 251.4663370413333 C540.843076497227 258.3589547472819, 541.4954316364825 264.394892231673, 541.8890576713533 270.38285389132795 M542.2215443864466 268.96907815784215 C521.9088154634461 270.36453980006274, 503.1772648241371 270.34414037264884, 471.8023875966668 269.45167870372535 M540.865958570689 270.2861657269299 C524.4814592080191 269.08732244975863, 506.72711044959726 269.09643077857794, 471.24394173547626 269.5115131743252 M472.3743677319586 270.86478937491773 C469.7349476733357 265.9768440738693, 472.3794330277592 260.6414022823423, 471.1537954749167 250.7813697038591 M470.9512472575158 270.6163675446063 C470.6218092483878 264.5310826714709, 471.3349036759734 259.78097792834046, 470.9839900129288 252.0219140882045" stroke="#1971c2" stroke-width="1" fill="none"></path></g><text x="506.2" y="265" font-family="Virgil, 'Segoe Print', 'Comic Sans MS', Comic Sans, cursive" font-size="11" fill="#1971c2" text-anchor="middle">#someday</text><text x="836" y="240" font-family="Virgil, 'Segoe Print', 'Comic Sans MS', Comic Sans, cursive" font-size="20" fill="#f08c00">⚑</text><text x="866" y="240" font-family="Virgil, 'Segoe Print', 'Comic Sans MS', Comic Sans, cursive" font-size="20" fill="#868e96">⋯</text><text x="296" y="328" font-family="Virgil, 'Segoe Print', 'Comic Sans MS', Comic Sans, cursive" font-size="12" fill="#868e96">Same task shows under People → Alex even though it lives in a Project file (cross-indexed by [[wikilink]]).</text></svg>