<svg xmlns="http://www.w3.org/2000/svg" width="860" height="380" viewBox="0 0 860 380"><rect width="860" height="380" fill="#ffffff"></rect><text x="30" y="40" font-family="Virgil, 'Segoe Print', 'Comic Sans MS', Comic Sans, cursive" font-size="18" fill="#1e1e1e" font-weight="bold">Right-click any task, anywhere in your vault</text><g><path d="M29.67900704741478 59.749185758829114 L828.5457644402981 60.995297628641126 L829.2118321359158 349.1490327894688 L31.361780446767806 350.10394592881204" stroke="none" stroke-width="0" fill="#f8f9fa"></path><path d="M30.457297213077545 60.593772466182706 C190.24510098457336 60.05365734815597, 349.95181344747544 60.19018696546554, 829.6241988396645 59.86218944311142 M30.129708079099654 60.01868621945381 C258.56855317234994 58.22076594471931, 486.44269001364705 58.13158499836921, 830.2171209132671 60.003604317903516 M830.088085722585 59.40139009931692 C827.5639112207442 137.65532764288378, 829.2235132662257 216.26746999791303, 829.7373279195763 349.1135930686891 M830.1144207057209 59.881748256800684 C830.4318200748199 139.0748068154969, 830.4882927335276 218.1437284451221, 830.3764853546954 350.24537250096284 M829.4275860619545 350.366796605587 C619.2470235013961 352.8429366564751, 409.4611508822441 352.14722506284716, 30.430664446353912 350.12348994970324 M829.752413996458 350.1360230267048 C587.2872565710545 348.6297494995594, 344.21825026869766 348.92227509617805, 30.241855639219285 349.73356075406076 M29.47057693788725 350.52445035551125 C29.59474754731496 249.233080925794, 30.236874902342347 147.83441255050795, 30.220309638516294 60.705370420073834 M29.923100491398685 350.59570510598013 C30.87619705474679 276.26166483457143, 30.890726953408024 201.70110024385733, 30.457754172733946 60.57124324024242" stroke="#1e1e1e" stroke-width="1.4" fill="none"></path></g><text x="52" y="96" font-family="Virgil, 'Segoe Print', 'Comic Sans MS', Comic Sans, cursive" font-size="12" fill="#868e96">Trip Planning.md</text><g><path d="M43.680135061442854 107.79955090790988 C198.7061698705703 108.74090323672891, 352.8612497846782 108.70036665187479, 815.7511739847064 107.79941576272249 M43.9134945692122 107.97635044202208 C313.63781040109694 109.15935626320838, 583.6680065125227 109.16132293515206, 815.9899807991087 107.88315377816558" stroke="#ced4da" stroke-width="1.2" fill="none"></path></g><text x="60" y="140" font-family="Virgil, 'Segoe Print', 'Comic Sans MS', Comic Sans, cursive" font-size="15" fill="#1e1e1e">- [ ] Draft the trip itinerary</text><text x="60" y="170" font-family="Virgil, 'Segoe Print', 'Comic Sans MS', Comic Sans, cursive" font-size="15" fill="#1e1e1e">- [ ] Follow up with Jordan about the venue</text><text x="60" y="200" font-family="Virgil, 'Segoe Print', 'Comic Sans MS', Comic Sans, cursive" font-size="15" fill="#868e96">- [x] Book the rental car</text><g><path d="M52.238882928341624 153.11783397868277 L412.16398499533534 154.51970983222128 L411.71331115290525 175.64266188815236 L51.73200300261378 175.51693916991354" stroke="none" stroke-width="0" fill="#e7f5ff"></path><path d="M51.67458498310289 153.9176633594284 C124.04066943613515 154.07662075095698, 195.50237759101523 153.55985275628436, 412.4705690116818 154.1345148915726 M51.66106784850823 154.22326814079915 C169.9820485094024 154.51567327646185, 288.0571609732911 154.7368031879892, 411.8167603225355 153.8164339114408 M411.5321352787316 153.70203965231775 C412.38637338333575 161.539233719185, 412.47590258770435 167.5137622281909, 411.00597191527487 176.47032223269343 M412.4716397549957 154.12261339761318 C412.3886328349933 158.5318164385855, 412.47334611519426 162.75480465106665, 411.66475664637983 175.46807740069926 M412.12037867546195 176.27333602390374 C306.2168222246488 177.59961398916056, 200.25631148886708 177.88035672961672, 52.387092112863485 175.8399784333093 M411.7490061910776 176.05228710825247 C320.2084560455191 175.79300279427363, 227.97235207526947 175.93405347078055, 52.24078736032738 175.71542636289533 M53.00582516863942 176.18671539351345 C53.02397844291478 169.4389990326017, 51.5872182796076 161.33032609820364, 52.93048120215535 153.25810924097897 M52.184644892439245 176.59360293485224 C52.11601330889016 167.0286736994982, 51.53780926121026 158.9239407684654, 51.78666605018079 154.55690827704967" stroke="#1971c2" stroke-width="1" fill="none"></path></g><text x="60" y="170" font-family="Virgil, 'Segoe Print', 'Comic Sans MS', Comic Sans, cursive" font-size="15" fill="#1e1e1e">- [ ] Follow up with Jordan about the venue</text><g><path d="M300.8382623329759 176.96107507795097 L598.8550877705217 176.34177085012197 L600.0207062378526 341.91080738157035 L300.98311578184365 340.78190537542105" stroke="none" stroke-width="0" fill="#ffffff"></path><path d="M300.4404715987284 176.8783062173243 C359.7243490706424 174.68676650437598, 420.8012957486141 175.12477553210587, 599.8209808797064 176.58449311154914 M299.90281863317944 175.5466426051607 C411.5092113509146 175.04957194198093, 522.3305405371785 175.79007668566223, 600.1832531005082 175.49825743303074 M598.8055437669158 176.0031727924943 C598.3477008533627 232.33250833451748, 599.420301837936 289.49769745320083, 600.7870674237608 341.3316123619676 M599.5669951744378 176.42406528517603 C600.0957034298926 233.71290405765177, 598.8274796435386 290.71207531914115, 600.1785103388131 341.87256484553217 M599.1902153850025 342.1501310566758 C501.4843972041345 343.6415467045609, 405.0448079990507 343.46281492870804, 300.35502938854535 341.3695640714023 M599.7190099773944 341.923078003382 C537.9622593314962 341.4135836686353, 475.29487571770096 342.3520529523404, 300.2626060898373 341.65852573569845 M300.16461692899463 341.8237795010209 C299.12386445508895 294.3582934081554, 297.8222375343889 243.8424304232001, 299.11408187001945 176.24594770818948 M300.5205587215722 342.6900490097702 C300.6466572354883 290.35634000375865, 300.68056205020844 238.89404747113585, 300.36814718917014 176.63296843096614" stroke="#1e1e1e" stroke-width="1.6" fill="none"></path></g><g><path d="M306.5987588092685 184.6864821985364 L593.1822055503726 184.2441220358014 L594.0147901698947 209.93629098683596 L306.70222555845976 209.12993241101503" stroke="none" stroke-width="0" fill="#e7f5ff"></path><path d="M306.3232043328237 184.6444737318018 C363.4001768386961 183.06446934424633, 421.7928476509376 183.3858667192119, 593.8686413482636 184.42888283081965 M305.92869134146946 183.66734047154748 C412.9889660885057 183.32311289972134, 519.4731856809171 183.8664722044421, 594.1344654144754 183.6318369400554 M593.1468169763684 184.00226628035307 C593.3054282749445 192.76151225268842, 594.071571835354 202.1177964940667, 594.5621910169721 209.52258025854826 M593.6907108388841 184.30290377512574 C594.405514594391 193.0858467809856, 593.4996404612809 201.6618844218552, 594.1275073848665 209.90897488966584 M593.4058052846614 210.11016149088633 C499.6290047261631 211.1632017926534, 406.78132353086977 211.03205398531307, 306.26050950160885 209.5374057617364 M593.7938182778446 209.94355703598563 C534.4092781050628 209.57351735876847, 474.3565438383006 210.26213687383162, 306.1926921651846 209.74943682614577 M306.11758352071047 209.87412821501493 C305.93830294780435 203.23013855218886, 305.0085694330186 194.4073082521558, 305.36720133572817 184.17567693442106 M306.37182765826583 210.49289214983582 C306.40713500104846 201.82086189612747, 306.43135272584857 193.77127198055388, 306.26296227797866 184.45212030783296" stroke="#e7f5ff" stroke-width="1.4" fill="none"></path></g><text x="316" y="203" font-family="Virgil, 'Segoe Print', 'Comic Sans MS', Comic Sans, cursive" font-size="13" fill="#1e1e1e">⚑  Taskgregator: Priority        ▸</text><text x="316" y="233" font-family="Virgil, 'Segoe Print', 'Comic Sans MS', Comic Sans, cursive" font-size="13" fill="#1e1e1e">◷  Taskgregator: Set due date…</text><text x="316" y="263" font-family="Virgil, 'Segoe Print', 'Comic Sans MS', Comic Sans, cursive" font-size="13" fill="#1e1e1e">★  Taskgregator: Toggle #today</text><text x="316" y="293" font-family="Virgil, 'Segoe Print', 'Comic Sans MS', Comic Sans, cursive" font-size="13" fill="#1e1e1e">▤  Taskgregator: Open detail note</text><text x="316" y="323" font-family="Virgil, 'Segoe Print', 'Comic Sans MS', Comic Sans, cursive" font-size="13" fill="#1e1e1e">✓✓  Reveal in Taskgregator</text></svg>